<svg width="36" height="35" viewBox="0 0 36 35" fill="none" xmlns="http://www.w3.org/2000/svg">
<path fill-rule="evenodd" clip-rule="evenodd" d="M19.2933 10.4553C18.5966 10.855 17.8541 10.9845 17.0648 10.845C15.7155 10.5063 14.9486 9.65628 14.7646 8.29479C14.753 7.93984 14.7646 7.58574 14.8005 7.23219C15.1642 6.03578 15.9665 5.32742 17.2086 5.10713C18.6154 4.94979 19.6692 5.46983 20.3714 6.66554C20.9243 8.18366 20.5648 9.44669 19.2933 10.4553ZM25.1518 5.60293C24.8958 4.41356 24.3567 3.37435 23.5344 2.48612C22.4058 1.2683 21.0163 0.489091 19.3652 0.148365C19.0301 0.100897 18.6944 0.0541365 18.3588 0.00666872C17.5148 -0.0188258 16.6766 0.0286393 15.8429 0.148365C15.6789 0.22992 15.5114 0.300773 15.3396 0.360917C14.8242 0.473601 14.3448 0.662769 13.902 0.927574C13.2471 1.24999 12.672 1.67494 12.1767 2.20272C11.2178 3.07968 10.5464 4.14228 10.164 5.39038C10.0705 5.66533 10.0224 5.94859 10.0202 6.24044C9.9505 7.72461 9.92606 9.21217 9.94834 10.7033C8.60124 10.6807 7.25916 10.704 5.92284 10.7741C4.85609 10.9696 3.89716 11.3947 3.04748 12.0493C2.9756 12.0726 2.92816 12.1201 2.90372 12.191C1.96708 12.9489 1.24824 13.8698 0.747208 14.9537C-0.589109 18.8936 0.465423 22.0459 3.9101 24.4104C4.39316 24.696 4.89635 24.9439 5.41966 25.1543C6.09034 23.9048 6.95294 22.7947 8.00747 21.8249C8.56385 21.3021 9.13893 20.7942 9.73269 20.3019C8.77448 20.2785 7.81627 20.2544 6.85733 20.231C6.05727 19.9981 5.53036 19.4901 5.27589 18.708C5.23923 18.4863 5.21551 18.2618 5.204 18.0351C5.2385 16.8684 5.83731 16.1833 7.0011 15.9808C8.77448 15.9454 10.5471 15.9333 12.3205 15.9454C13.5742 15.9022 14.7962 15.6896 15.9865 15.3078C17.0785 14.9939 18.1094 14.5456 19.0776 13.9619C19.2961 13.8782 19.4881 13.7599 19.6526 13.6077C20.4448 13.099 21.2119 12.5565 21.953 11.9784C22.2649 11.6475 22.5762 11.3175 22.8875 10.9867C23.5135 10.3903 24.0168 9.70516 24.397 8.9323C24.7923 8.3317 25.0318 7.67067 25.1158 6.94893C25.1993 6.51327 25.2107 6.06409 25.1518 5.60293Z" fill="url(#paint0_linear_4_7)"/>
<path fill-rule="evenodd" clip-rule="evenodd" d="M35.1065 18.8507C35.0367 19.4811 34.8929 20.0954 34.6752 20.6925C34.1347 21.9576 33.3195 23.0202 32.2311 23.8803C32.1672 23.9234 32.0953 23.9468 32.0155 23.951C31.536 24.3293 31.0091 24.6361 30.434 24.8719C29.7626 25.1227 29.0683 25.2644 28.3494 25.297H25.2584V28.4846C25.1485 29.9992 24.5856 31.3217 23.5691 32.4516C23.0825 32.9432 22.5678 33.3917 22.0237 33.7975C21.7498 33.8975 21.486 34.0157 21.233 34.1518C20.6464 34.4471 20.023 34.6597 19.364 34.7893C18.2677 35.0443 17.1657 35.0677 16.0572 34.8601C16.0062 34.7964 15.9343 34.7724 15.8417 34.7893C15.4772 34.705 15.1177 34.5987 14.7634 34.4705C12.1266 33.3435 10.5452 31.3954 10.019 28.6263C10.0068 26.9858 10.51 25.5222 11.5286 24.2344C12.0497 23.5671 12.6133 22.9295 13.2178 22.3217C13.9388 21.67 14.6462 21.0091 15.3384 20.3384C15.4039 20.3886 15.4276 20.4595 15.4103 20.5508C15.3989 23.1718 15.4103 25.7928 15.4462 28.4138C16.0645 29.9794 17.1787 30.4632 18.7888 29.866C19.494 29.4558 19.9015 28.8538 20.0109 28.0597V20.2675H28.3494C28.7059 20.1747 29.0417 20.0217 29.3558 19.8071C30.3234 18.8876 30.4671 17.8603 29.7871 16.7256C29.4204 16.2736 28.941 16.0257 28.3494 15.9817C26.5761 15.9696 24.8027 15.9343 23.0301 15.8755C23.9444 15.0452 24.8545 14.2192 25.7616 13.3961C26.3367 12.8769 26.9117 12.357 27.4868 11.8377C27.9166 11.4382 28.348 11.0372 28.7807 10.6335C28.8267 10.5307 28.91 10.4839 29.0322 10.4918C31.1435 11.0033 32.8084 12.1367 34.0282 13.892C34.6845 14.9341 35.0677 16.0675 35.1784 17.2922V17.4339C35.2021 17.9192 35.1776 18.3916 35.1065 18.8507Z" fill="url(#paint1_linear_4_7)"/>
<defs>
<linearGradient id="paint0_linear_4_7" x1="0.185006" y1="12.5785" x2="25.1867" y2="12.5785" gradientUnits="userSpaceOnUse">
<stop stop-color="#2E90FA"/>
<stop offset="1" stop-color="#5AC2FF"/>
</linearGradient>
<linearGradient id="paint1_linear_4_7" x1="31.8535" y1="16.3437" x2="12.7516" y2="32.3698" gradientUnits="userSpaceOnUse">
<stop stop-color="#2E90FA"/>
<stop offset="1" stop-color="#5AC2FF"/>
</linearGradient>
</defs>
</svg>
