<svg width="128" height="45" viewBox="0 0 128 45" fill="none" xmlns="http://www.w3.org/2000/svg">
<g clip-path="url(#clip0_33_13)">
<path d="M14.5918 6.78466C15.6449 4.97574 15.3804 2.86906 14.0009 2.07927C12.6214 1.28946 10.6493 2.11564 9.59611 3.92459C8.54286 5.73351 8.80744 7.84021 10.1869 8.63003C11.5664 9.41978 13.5385 8.59366 14.5918 6.78466Z" fill="#605DFF"/>
<path d="M9.82579 41.9597C25.3047 28.5068 1.62366 14.3748 6.37023 0C-5.64155 13.3058 18.0898 27.455 9.82579 41.9597Z" fill="url(#paint0_linear_33_13)"/>
<path d="M0.830512 9.34863C2.2683 19.4404 10.5612 28.0578 9.32194 38.632C6.41327 28.9298 -2.7877 20.1568 0.830512 9.34863Z" fill="url(#paint1_linear_33_13)"/>
<path d="M10.1855 13.2019L11.6247 15.7708C11.6247 15.7708 19.9722 9.2057 23.1385 8.92029C21.1322 7.6101 12.6264 9.45262 10.1855 13.2019Z" fill="url(#paint2_linear_33_13)"/>
<path d="M36.5736 25.962H33.7734V5.41819H36.5736V14.2551H46.8028V5.41819H49.603V25.962H46.8028V16.8409H36.5736V25.962ZM52.1654 19.0004C52.1654 17.5796 52.4796 16.3199 53.1083 15.2212C53.7369 14.1225 54.5941 13.2606 55.6799 12.6355C56.7847 12.0104 58.0419 11.6978 59.4515 11.6978C60.8611 11.6978 62.1088 12.0104 63.1946 12.6355C64.2804 13.2606 65.1376 14.1225 65.7662 15.2212C66.3948 16.3199 66.7091 17.5796 66.7091 19.0004C66.7091 20.4211 66.3948 21.6808 65.7662 22.7795C65.1376 23.8782 64.2804 24.7401 63.1946 25.3653C62.1088 25.9903 60.8611 26.3029 59.4515 26.3029C58.0419 26.3029 56.7847 25.9903 55.6799 25.3653C54.5941 24.7401 53.7369 23.8782 53.1083 22.7795C52.4796 21.6808 52.1654 20.4211 52.1654 19.0004ZM54.8798 19.0004C54.8798 19.9665 55.0703 20.8189 55.4513 21.5577C55.8513 22.2964 56.3942 22.8742 57.0799 23.291C57.7657 23.7078 58.5562 23.9161 59.4515 23.9161C60.3468 23.9161 61.1373 23.7078 61.8231 23.291C62.5088 22.8742 63.0422 22.2964 63.4231 21.5577C63.8232 20.8189 64.0232 19.9665 64.0232 19.0004C64.0232 18.0154 63.8232 17.1629 63.4231 16.443C63.0422 15.7043 62.5088 15.1265 61.8231 14.7098C61.1373 14.293 60.3468 14.0846 59.4515 14.0846C58.5562 14.0846 57.7657 14.293 57.0799 14.7098C56.3942 15.1265 55.8513 15.7043 55.4513 16.443C55.0703 17.1629 54.8798 18.0154 54.8798 19.0004ZM67.6821 21.9271H70.2537C70.2537 22.628 70.5108 23.1868 71.0252 23.6035C71.5395 24.0014 72.2348 24.2002 73.111 24.2002C74.0634 24.2002 74.7968 24.0203 75.3112 23.6603C75.8254 23.2815 76.0826 22.7795 76.0826 22.1544C76.0826 21.6998 75.9397 21.3209 75.654 21.0178C75.3873 20.7148 74.892 20.4685 74.1682 20.279L71.7109 19.7107C70.4728 19.4076 69.5489 18.9435 68.9393 18.3184C68.3488 17.6933 68.0536 16.8693 68.0536 15.8464C68.0536 14.9939 68.2726 14.2551 68.7107 13.63C69.1679 13.0049 69.787 12.5218 70.568 12.1808C71.3681 11.8399 72.2824 11.6694 73.311 11.6694C74.3396 11.6694 75.2254 11.8494 75.9684 12.2092C76.7303 12.5692 77.3208 13.0711 77.7398 13.7153C78.178 14.3593 78.4066 15.1265 78.4256 16.0168H75.8541C75.835 15.297 75.5968 14.7382 75.1397 14.3403C74.6825 13.9426 74.0444 13.7436 73.2253 13.7436C72.3872 13.7436 71.7395 13.9236 71.2823 14.2835C70.8252 14.6435 70.5966 15.136 70.5966 15.7611C70.5966 16.6893 71.2823 17.3239 72.6538 17.6649L75.1111 18.2616C76.2922 18.5268 77.1779 18.9625 77.7685 19.5687C78.359 20.1559 78.6542 20.9609 78.6542 21.9839C78.6542 22.8553 78.4161 23.6225 77.9399 24.2855C77.4636 24.9295 76.8064 25.4316 75.9684 25.7914C75.1492 26.1325 74.1777 26.3029 73.0539 26.3029C71.4157 26.3029 70.1109 25.9051 69.1393 25.1095C68.1679 24.3139 67.6821 23.2531 67.6821 21.9271ZM80.7755 32.1847V12.0672H83.2041L83.4046 14.5676C83.8611 13.6016 84.5377 12.8817 85.4327 12.4082C86.3474 11.9156 87.3569 11.6694 88.4614 11.6694C89.7949 11.6694 90.9476 11.9819 91.9187 12.6071C92.8907 13.2133 93.6335 14.0657 94.1481 15.1644C94.6807 16.2441 94.9474 17.4944 94.9474 18.9151C94.9474 20.3359 94.6905 21.6051 94.1759 22.7227C93.681 23.8403 92.9479 24.7212 91.976 25.3653C91.0237 26.0093 89.8522 26.3313 88.4614 26.3313C87.3381 26.3313 86.3375 26.104 85.4613 25.6494C84.5851 25.1947 83.9184 24.5412 83.461 23.6888V32.1847H80.7755ZM83.4897 19.0288C83.4897 19.957 83.6615 20.7999 84.0043 21.5577C84.3659 22.2964 84.8706 22.8742 85.5186 23.291C86.1854 23.7078 86.9757 23.9161 87.8903 23.9161C88.8042 23.9161 89.5855 23.7078 90.2334 23.291C90.8806 22.8553 91.3763 22.268 91.7191 21.5292C92.0807 20.7905 92.2615 19.957 92.2615 19.0288C92.2615 18.0627 92.0807 17.2102 91.7191 16.4714C91.3763 15.7327 90.8806 15.1549 90.2334 14.7382C89.5855 14.3215 88.8042 14.113 87.8903 14.113C86.9757 14.113 86.1854 14.3215 85.5186 14.7382C84.8706 15.1549 84.3659 15.7327 84.0043 16.4714C83.6615 17.2102 83.4897 18.0627 83.4897 19.0288ZM97.0508 25.962V12.0672H99.7367V25.962H97.0508ZM98.3655 8.77113C97.8894 8.77113 97.4705 8.6006 97.1081 8.25963C96.7653 7.8997 96.5935 7.48299 96.5935 7.0094C96.5935 6.51686 96.7653 6.10014 97.1081 5.75917C97.4705 5.41819 97.8894 5.24767 98.3655 5.24767C98.8605 5.24767 99.2794 5.41819 99.623 5.75917C99.9658 6.10014 100.136 6.51686 100.136 7.0094C100.136 7.48299 99.9658 7.8997 99.623 8.25963C99.2794 8.6006 98.8605 8.77113 98.3655 8.77113ZM101.293 12.0672H109.465V14.3119H101.293V12.0672ZM106.722 25.962H104.036V7.71974H106.722V25.962ZM114.936 26.3029C113.451 26.3029 112.279 25.9146 111.422 25.138C110.584 24.3612 110.165 23.3478 110.165 22.0976C110.165 20.8284 110.622 19.8149 111.536 19.0572C112.451 18.2805 113.727 17.8259 115.365 17.6933L119.766 17.3523V16.9545C119.766 16.1778 119.622 15.5622 119.337 15.1075C119.051 14.634 118.66 14.3025 118.165 14.113C117.67 13.9047 117.108 13.8005 116.479 13.8005C115.356 13.8005 114.48 14.0373 113.851 14.5109C113.241 14.9655 112.937 15.619 112.937 16.4714H110.594C110.594 15.5054 110.841 14.6624 111.337 13.9426C111.831 13.2227 112.527 12.6639 113.422 12.2661C114.337 11.8683 115.394 11.6694 116.594 11.6694C117.756 11.6694 118.765 11.8778 119.622 12.2945C120.499 12.6923 121.175 13.308 121.651 14.1415C122.146 14.956 122.394 15.9884 122.394 17.2386V25.962H120.108L119.823 23.7172C119.46 24.5128 118.832 25.1474 117.937 25.621C117.061 26.0756 116.06 26.3029 114.936 26.3029ZM115.708 24.2287C116.984 24.2287 117.985 23.8498 118.709 23.092C119.432 22.3154 119.794 21.2735 119.794 19.9665V19.2277L116.222 19.5119C115.041 19.6255 114.184 19.9002 113.651 20.3359C113.136 20.7715 112.88 21.3304 112.88 22.0123C112.88 22.7511 113.127 23.3099 113.622 23.6888C114.137 24.0487 114.832 24.2287 115.708 24.2287ZM128 25.962H125.314V5.04883H128V25.962Z" fill="white"/>
<path d="M34.7899 42.0324H33.8398V32.5049H34.7899L38.2823 40.9014L41.7747 32.5049H42.7381V42.0324H41.788V37.5082C41.788 37.0912 41.788 36.7275 41.788 36.417C41.7969 36.1065 41.8014 35.836 41.8014 35.6054C41.8103 35.3747 41.8193 35.1707 41.8282 34.9932C41.8371 34.8069 41.8505 34.6295 41.8684 34.461L38.7506 42.0324H37.8273L34.7096 34.5008C34.7364 34.6783 34.7542 35.0198 34.7631 35.5255C34.781 36.0222 34.7899 36.6344 34.7899 37.3618V42.0324ZM46.3224 42.192C45.6355 42.192 45.0958 42.0147 44.7033 41.6598C44.3197 41.305 44.1279 40.8481 44.1279 40.2892C44.1279 39.6949 44.342 39.2203 44.7701 38.8655C45.1983 38.5106 45.7916 38.3021 46.5498 38.2401L48.6907 38.067V37.8541C48.6907 37.4284 48.6149 37.0957 48.4633 36.8562C48.3116 36.6078 48.1064 36.4348 47.8477 36.3372C47.5891 36.2396 47.2991 36.1908 46.978 36.1908C46.4071 36.1908 45.9655 36.3106 45.6533 36.5501C45.3411 36.7896 45.185 37.1267 45.185 37.5614H44.342C44.342 37.1267 44.4535 36.7497 44.6765 36.4303C44.8995 36.111 45.2118 35.8626 45.6131 35.6852C46.0146 35.5077 46.4785 35.419 47.0048 35.419C47.5132 35.419 47.9593 35.5077 48.3429 35.6852C48.7264 35.8537 49.0297 36.1199 49.2527 36.4835C49.4846 36.8384 49.6007 37.2997 49.6007 37.8674V42.0324H48.8246L48.7042 40.9014C48.5079 41.3094 48.1956 41.6288 47.7675 41.8595C47.3482 42.0812 46.8665 42.192 46.3224 42.192ZM46.5365 41.4469C47.2233 41.4469 47.7541 41.2296 48.1288 40.7949C48.5034 40.3602 48.6907 39.7969 48.6907 39.105V38.759L46.7773 38.9053C46.1707 38.9585 45.7336 39.1094 45.466 39.3578C45.1983 39.6062 45.0646 39.9077 45.0646 40.2626C45.0646 40.653 45.1983 40.9501 45.466 41.1542C45.7336 41.3493 46.0904 41.4469 46.5365 41.4469ZM51.9752 42.0324H51.0519V35.592H51.8547L51.9886 36.7098C52.2027 36.3017 52.506 35.9868 52.8985 35.765C53.2999 35.5343 53.737 35.419 54.2098 35.419C55.1019 35.419 55.7441 35.663 56.1366 36.1509C56.5291 36.6388 56.7254 37.2864 56.7254 38.0936V42.0324H55.8021V38.2933C55.8021 37.5392 55.6416 37.0114 55.3204 36.7098C55.0082 36.4081 54.5845 36.2574 54.0492 36.2574C53.3891 36.2574 52.8762 36.4791 52.5105 36.9227C52.1536 37.3573 51.9752 37.9384 51.9752 38.6658V42.0324ZM60.0241 42.192C59.3372 42.192 58.7975 42.0147 58.405 41.6598C58.0214 41.305 57.8296 40.8481 57.8296 40.2892C57.8296 39.6949 58.0437 39.2203 58.4719 38.8655C58.9001 38.5106 59.4933 38.3021 60.2515 38.2401L62.3925 38.067V37.8541C62.3925 37.4284 62.3166 37.0957 62.165 36.8562C62.0133 36.6078 61.8081 36.4348 61.5495 36.3372C61.2908 36.2396 61.0008 36.1908 60.6797 36.1908C60.1088 36.1908 59.6672 36.3106 59.355 36.5501C59.0428 36.7896 58.8867 37.1267 58.8867 37.5614H58.0437C58.0437 37.1267 58.1552 36.7497 58.3782 36.4303C58.6012 36.111 58.9135 35.8626 59.3148 35.6852C59.7163 35.5077 60.1802 35.419 60.7065 35.419C61.2149 35.419 61.661 35.5077 62.0446 35.6852C62.4281 35.8537 62.7314 36.1199 62.9544 36.4835C63.1864 36.8384 63.3024 37.2997 63.3024 37.8674V42.0324H62.5263L62.4059 40.9014C62.2096 41.3094 61.8973 41.6288 61.4692 41.8595C61.0499 42.0812 60.5682 42.192 60.0241 42.192ZM60.2382 41.4469C60.925 41.4469 61.4558 41.2296 61.8305 40.7949C62.2051 40.3602 62.3925 39.7969 62.3925 39.105V38.759L60.479 38.9053C59.8724 38.9585 59.4353 39.1094 59.1677 39.3578C58.9001 39.6062 58.7663 39.9077 58.7663 40.2626C58.7663 40.653 58.9001 40.9501 59.1677 41.1542C59.4353 41.3493 59.7921 41.4469 60.2382 41.4469ZM64.3121 38.6259C64.3121 38.0404 64.4325 37.5082 64.6734 37.0291C64.9142 36.5412 65.2621 36.1509 65.717 35.8581C66.172 35.5654 66.7161 35.419 67.3495 35.419C67.965 35.419 68.4913 35.5698 68.9284 35.8715C69.3655 36.1731 69.6777 36.6078 69.8651 37.1755L69.7179 37.3618L69.8383 35.592H70.6411V41.8328C70.6411 42.4715 70.5118 43.026 70.2531 43.4961C69.9944 43.9752 69.6287 44.3433 69.1559 44.6006C68.6921 44.8667 68.1434 44.9998 67.51 44.9998C66.6805 44.9998 65.9936 44.778 65.4494 44.3345C64.9053 43.8909 64.5663 43.2832 64.4325 42.5115H65.3558C65.4539 43.0348 65.6903 43.4385 66.0649 43.7223C66.4485 44.015 66.9347 44.1615 67.5235 44.1615C68.1925 44.1615 68.7277 43.9574 69.1292 43.5493C69.5305 43.1412 69.7313 42.6001 69.7313 41.9259V39.9034L69.8651 40.0763C69.6777 40.6174 69.3522 41.0477 68.8883 41.3671C68.4334 41.6775 67.8982 41.8328 67.2826 41.8328C66.667 41.8328 66.1363 41.6864 65.6903 41.3937C65.2443 41.1009 64.9008 40.7151 64.66 40.236C64.428 39.7481 64.3121 39.2114 64.3121 38.6259ZM65.2353 38.6126C65.2353 39.0562 65.3201 39.4598 65.4896 39.8235C65.668 40.1872 65.9177 40.4755 66.2389 40.6885C66.569 40.9014 66.9615 41.0078 67.4164 41.0078C67.8802 41.0078 68.2773 40.9058 68.6073 40.7017C68.9462 40.4888 69.2049 40.2049 69.3834 39.8501C69.5618 39.4864 69.651 39.0739 69.651 38.6126C69.651 38.1513 69.5618 37.7432 69.3834 37.3884C69.2139 37.0336 68.9641 36.7541 68.6341 36.5501C68.3129 36.3372 67.9115 36.2308 67.4298 36.2308C66.9659 36.2308 66.569 36.3417 66.2389 36.5634C65.9177 36.7763 65.668 37.0646 65.4896 37.4284C65.3201 37.7832 65.2353 38.1779 65.2353 38.6126ZM74.8827 42.192C74.2582 42.192 73.7052 42.0502 73.2235 41.7663C72.7507 41.4824 72.3805 41.0876 72.1129 40.582C71.8453 40.0763 71.7114 39.4864 71.7114 38.8122C71.7114 38.1469 71.8408 37.5614 72.0994 37.0557C72.3671 36.5412 72.7328 36.142 73.1967 35.8581C73.6606 35.5654 74.2002 35.419 74.8158 35.419C75.4045 35.419 75.9174 35.5477 76.3546 35.8049C76.8006 36.0622 77.1441 36.4215 77.3849 36.8828C77.6347 37.3352 77.7595 37.8674 77.7595 38.4796V38.9319H72.2199L72.2466 38.2667H76.8363C76.8363 37.6457 76.6489 37.1489 76.2743 36.7763C75.9085 36.3949 75.4224 36.2042 74.8158 36.2042C74.3697 36.2042 73.9773 36.3061 73.6382 36.5101C73.3082 36.7142 73.0539 37.0069 72.8756 37.3884C72.6972 37.761 72.6079 38.2045 72.6079 38.719C72.6079 39.5707 72.8042 40.2316 73.1967 40.7017C73.5982 41.1719 74.1645 41.407 74.896 41.407C75.4224 41.407 75.855 41.2961 76.194 41.0743C76.533 40.8526 76.7604 40.5288 76.8764 40.1029H77.7595C77.59 40.7771 77.26 41.2961 76.7694 41.6598C76.2787 42.0147 75.6498 42.192 74.8827 42.192ZM79.7575 42.0324H78.8343V35.592H79.6371L79.771 36.803L79.6371 36.763C79.771 36.3549 80.0207 36.0311 80.3864 35.7916C80.7611 35.5432 81.1983 35.419 81.6978 35.419C82.2779 35.419 82.759 35.5787 83.1427 35.8981C83.5354 36.2085 83.7849 36.6344 83.8921 37.1755H83.6916C83.7808 36.6344 84.0213 36.2085 84.414 35.8981C84.8157 35.5787 85.3148 35.419 85.9128 35.419C86.6082 35.419 87.1703 35.632 87.599 36.0577C88.0269 36.4835 88.2412 37.0691 88.2412 37.8142V42.0324H87.3445V38.0005C87.3445 37.4505 87.2014 37.0203 86.9167 36.7098C86.6311 36.3993 86.2384 36.244 85.7386 36.244C85.3819 36.244 85.0743 36.3283 84.8157 36.4969C84.5572 36.6565 84.3559 36.8739 84.2136 37.1489C84.0794 37.4239 84.0123 37.7255 84.0123 38.0538V42.0324H83.1026V37.9872C83.1026 37.4372 82.9553 37.0114 82.6608 36.7098C82.3761 36.4081 81.9875 36.2574 81.497 36.2574C81.1402 36.2574 80.8281 36.3372 80.5604 36.4969C80.3018 36.6565 80.101 36.8739 79.9583 37.1489C79.8245 37.415 79.7575 37.7122 79.7575 38.0404V42.0324ZM92.4128 42.192C91.7886 42.192 91.2355 42.0502 90.7536 41.7663C90.2808 41.4824 89.911 41.0876 89.6435 40.582C89.3759 40.0763 89.2418 39.4864 89.2418 38.8122C89.2418 38.1469 89.371 37.5614 89.6295 37.0557C89.8971 36.5412 90.2636 36.142 90.7275 35.8581C91.1913 35.5654 91.7305 35.419 92.3465 35.419C92.9347 35.419 93.4477 35.5477 93.8846 35.8049C94.3313 36.0622 94.6741 36.4215 94.9154 36.8828C95.1649 37.3352 95.2901 37.8674 95.2901 38.4796V38.9319H89.7506L89.7768 38.2667H94.3665C94.3665 37.6457 94.1791 37.1489 93.8044 36.7763C93.4387 36.3949 92.9527 36.2042 92.3465 36.2042C91.8998 36.2042 91.5079 36.3061 91.1684 36.5101C90.8387 36.7142 90.5843 37.0069 90.4059 37.3884C90.2276 37.761 90.1384 38.2045 90.1384 38.719C90.1384 39.5707 90.3348 40.2316 90.7275 40.7017C91.1283 41.1719 91.6953 41.407 92.4267 41.407C92.9528 41.407 93.3855 41.2961 93.7242 41.0743C94.0638 40.8526 94.2912 40.5288 94.4066 40.1029H95.2901C95.1208 40.7771 94.7903 41.2961 94.2994 41.6598C93.8093 42.0147 93.1802 42.192 92.4128 42.192ZM97.288 42.0324H96.3643V35.592H97.1677L97.3011 36.7098C97.5154 36.3017 97.8189 35.9868 98.2108 35.765C98.6125 35.5343 99.0494 35.419 99.5223 35.419C100.415 35.419 101.057 35.663 101.45 36.1509C101.841 36.6388 102.038 37.2864 102.038 38.0936V42.0324H101.115V38.2933C101.115 37.5392 100.954 37.0114 100.633 36.7098C100.321 36.4081 99.8969 36.2574 99.3619 36.2574C98.7017 36.2574 98.1887 36.4791 97.823 36.9227C97.4663 37.3573 97.288 37.9384 97.288 38.6658V42.0324ZM102.754 35.592H106.26V36.3638H102.754V35.592ZM104.962 42.0324H104.052V33.5561H104.962V42.0324Z" fill="#E2E2E2"/>
</g>
<defs>
<linearGradient id="paint0_linear_33_13" x1="16.2816" y1="15.6885" x2="18.2898" y2="43.6432" gradientUnits="userSpaceOnUse">
<stop stop-color="#605DFF"/>
<stop offset="1" stop-color="#757DFF"/>
</linearGradient>
<linearGradient id="paint1_linear_33_13" x1="16.2815" y1="15.6889" x2="18.2897" y2="43.6435" gradientUnits="userSpaceOnUse">
<stop stop-color="#605DFF"/>
<stop offset="1" stop-color="#757DFF"/>
</linearGradient>
<linearGradient id="paint2_linear_33_13" x1="16.2813" y1="15.6888" x2="18.2896" y2="43.6436" gradientUnits="userSpaceOnUse">
<stop stop-color="#605DFF"/>
<stop offset="1" stop-color="#757DFF"/>
</linearGradient>
<clipPath id="clip0_33_13">
<rect width="128" height="45" fill="white"/>
</clipPath>
</defs>
</svg>
