<svg width="46" height="45" viewBox="0 0 46 45" fill="none" xmlns="http://www.w3.org/2000/svg">
<path fill-rule="evenodd" clip-rule="evenodd" d="M24.7518 13.4428C23.8561 13.9566 22.9014 14.1232 21.8867 13.9437C20.1519 13.5084 19.1658 12.4154 18.9293 10.6649C18.9144 10.2085 18.9293 9.75325 18.9754 9.29869C19.4431 7.76042 20.4746 6.84966 22.0715 6.56642C23.8802 6.36413 25.2351 7.03275 26.1379 8.57012C26.8488 10.522 26.3866 12.146 24.7518 13.4428ZM32.284 7.20389C31.9549 5.67468 31.2617 4.33852 30.2045 3.19649C28.7535 1.63069 26.9671 0.628837 24.8442 0.190754C24.4135 0.129723 23.9818 0.0696007 23.5503 0.00856962C22.4652 -0.0242097 21.3875 0.036818 20.3156 0.190754C20.1048 0.295611 19.8895 0.38671 19.6686 0.46404C19.0059 0.608921 18.3895 0.852142 17.8202 1.19261C16.9782 1.60715 16.2389 2.15353 15.6021 2.83211C14.3692 3.95965 13.506 5.32587 13.0143 6.93061C12.8942 7.28412 12.8323 7.64831 12.8295 8.02355C12.7398 9.93182 12.7084 11.8444 12.7371 13.7616C11.0051 13.7326 9.27961 13.7625 7.56151 13.8527C6.19 14.104 4.95712 14.6506 3.8647 15.4922C3.77228 15.5222 3.71129 15.5833 3.67986 15.6743C2.47563 16.6489 1.55143 17.8329 0.907252 19.2265C-0.81084 24.2922 0.544962 28.3453 4.97375 31.3854C5.59481 31.7525 6.24177 32.0712 6.91458 32.3418C7.77687 30.7353 8.88591 29.308 10.2417 28.0611C10.957 27.3889 11.6964 26.7358 12.4598 26.1029C11.2278 26.0728 9.99588 26.0418 8.76299 26.0118C7.73435 25.7122 7.05691 25.0592 6.72974 24.0535C6.68261 23.7685 6.6521 23.4798 6.63731 23.1884C6.68167 21.6884 7.45155 20.8075 8.94782 20.5471C11.2278 20.5016 13.5069 20.486 15.7869 20.5016C17.3988 20.446 18.9699 20.1727 20.5003 19.6818C21.9043 19.2783 23.2296 18.7018 24.4745 17.9513C24.7555 17.8438 25.0023 17.6916 25.2138 17.4959C26.2322 16.8419 27.2185 16.1443 28.1713 15.4011C28.5723 14.9757 28.9726 14.5513 29.3728 14.1259C30.1777 13.3592 30.8247 12.4783 31.3136 11.4846C31.8219 10.7124 32.1297 9.86245 32.2377 8.93449C32.3451 8.37435 32.3598 7.79682 32.284 7.20389Z" fill="url(#paint0_linear_6_31)"/>
<path fill-rule="evenodd" clip-rule="evenodd" d="M45.0831 24.2362C44.9934 25.0468 44.8086 25.8366 44.5287 26.6043C43.8337 28.2309 42.7857 29.5972 41.3863 30.703C41.3041 30.7584 41.2117 30.7884 41.1091 30.7939C40.4926 31.2803 39.8152 31.6747 39.0758 31.9779C38.2126 32.3004 37.3199 32.4826 36.3957 32.5245H32.4215V36.623C32.2802 38.5703 31.5565 40.2707 30.2496 41.7235C29.624 42.3555 28.9623 42.9322 28.2627 43.4539C27.9106 43.5825 27.5713 43.7344 27.2461 43.9094C26.4919 44.2892 25.6905 44.5624 24.8431 44.729C23.4336 45.057 22.0168 45.0871 20.5917 44.8201C20.5261 44.7383 20.4336 44.7073 20.3145 44.729C19.8459 44.6207 19.3838 44.484 18.9282 44.3192C15.5382 42.8702 13.5049 40.3654 12.8284 36.8052C12.8127 34.6959 13.4596 32.814 14.7692 31.1582C15.4393 30.3004 16.1639 29.4805 16.9411 28.6991C17.8681 27.8611 18.7775 27.0114 19.6675 26.149C19.7517 26.2136 19.7822 26.3047 19.7599 26.4221C19.7452 29.792 19.7599 33.1619 19.8061 36.5319C20.601 38.5448 22.0335 39.1669 24.1037 38.399C25.0104 37.8717 25.5343 37.0976 25.6749 36.0766V26.0579H36.3957C36.854 25.9385 37.2857 25.7419 37.6896 25.4659C38.9335 24.2836 39.1184 22.9629 38.244 21.5039C37.7727 20.9228 37.1563 20.604 36.3957 20.5475C34.1157 20.532 31.8357 20.4865 29.5566 20.411C30.7322 19.3434 31.9022 18.2814 33.0686 17.2231C33.8079 16.5555 34.5472 15.8871 35.2866 15.2194C35.8392 14.7058 36.3939 14.1902 36.9501 13.6711C37.0093 13.5389 37.1164 13.4788 37.2735 13.4889C39.988 14.1465 42.1285 15.6038 43.6968 17.8607C44.5406 19.2005 45.0333 20.6578 45.1756 22.2325V22.4147C45.2061 23.0386 45.1746 23.646 45.0831 24.2362Z" fill="url(#paint1_linear_6_31)"/>
<defs>
<linearGradient id="paint0_linear_6_31" x1="0.184433" y1="16.1726" x2="32.3289" y2="16.1726" gradientUnits="userSpaceOnUse">
<stop stop-color="#2E90FA"/>
<stop offset="1" stop-color="#5AC2FF"/>
</linearGradient>
<linearGradient id="paint1_linear_6_31" x1="40.9008" y1="21.013" x2="16.3409" y2="41.6174" gradientUnits="userSpaceOnUse">
<stop stop-color="#2E90FA"/>
<stop offset="1" stop-color="#5AC2FF"/>
</linearGradient>
</defs>
</svg>
