<svg width="160" height="62" viewBox="0 0 160 62" fill="none" xmlns="http://www.w3.org/2000/svg">
<mask id="mask0_33_2" style="mask-type:luminance" maskUnits="userSpaceOnUse" x="0" y="5" width="29" height="52">
<path d="M28.2825 5.08984H0V56.6637H28.2825V5.08984Z" fill="white"/>
</mask>
<g mask="url(#mask0_33_2)">
<path d="M17.8359 13.429C19.1232 11.2056 18.7999 8.61621 17.1137 7.64545C15.4275 6.67468 13.017 7.69016 11.7297 9.91359C10.4423 12.137 10.7657 14.7264 12.4518 15.6972C14.138 16.6679 16.5485 15.6525 17.8359 13.429Z" fill="#605DFF"/>
<path d="M12.011 56.6638C30.9311 40.1285 1.98544 22.7583 7.78724 5.08984C-6.89494 21.4444 22.1123 38.8357 12.011 56.6638Z" fill="url(#paint0_linear_33_2)"/>
<path d="M1.01515 16.5801C2.77258 28.9841 12.909 39.5761 11.3943 52.5731C7.83904 40.6479 -3.40745 29.8647 1.01515 16.5801Z" fill="url(#paint1_linear_33_2)"/>
<path d="M12.4492 21.3163L14.2084 24.4739C14.2084 24.4739 24.4117 16.4045 28.2819 16.0537C25.8296 14.4433 15.4328 16.708 12.4492 21.3163Z" fill="url(#paint2_linear_33_2)"/>
</g>
<path d="M44.7039 36.9999H41.2812V11.7489H44.7039V22.6107H57.2072V11.7489H60.6299V36.9999H57.2072V25.7889H44.7039V36.9999ZM63.7621 28.4432C63.7621 26.6969 64.1461 25.1486 64.9145 23.7981C65.6829 22.4477 66.7306 21.3883 68.0578 20.6199C69.4082 19.8516 70.9449 19.4674 72.6679 19.4674C74.3909 19.4674 75.916 19.8516 77.2431 20.6199C78.5703 21.3883 79.6181 22.4477 80.3864 23.7981C81.1548 25.1486 81.5391 26.6969 81.5391 28.4432C81.5391 30.1895 81.1548 31.7378 80.3864 33.0883C79.6181 34.4387 78.5703 35.4981 77.2431 36.2665C75.916 37.0348 74.3909 37.419 72.6679 37.419C70.9449 37.419 69.4082 37.0348 68.0578 36.2665C66.7306 35.4981 65.6829 34.4387 64.9145 33.0883C64.1461 31.7378 63.7621 30.1895 63.7621 28.4432ZM67.08 28.4432C67.08 29.6307 67.3127 30.6784 67.7784 31.5865C68.2673 32.4945 68.9309 33.2047 69.7691 33.7169C70.6073 34.2292 71.5736 34.4853 72.6679 34.4853C73.7622 34.4853 74.7285 34.2292 75.5667 33.7169C76.4049 33.2047 77.0569 32.4945 77.5225 31.5865C78.0115 30.6784 78.256 29.6307 78.256 28.4432C78.256 27.2325 78.0115 26.1847 77.5225 25.2999C77.0569 24.3919 76.4049 23.6817 75.5667 23.1695C74.7285 22.6572 73.7622 22.4011 72.6679 22.4011C71.5736 22.4011 70.6073 22.6572 69.7691 23.1695C68.9309 23.6817 68.2673 24.3919 67.7784 25.2999C67.3127 26.1847 67.08 27.2325 67.08 28.4432ZM82.7284 32.0405H85.8716C85.8716 32.902 86.1859 33.5889 86.8146 34.1011C87.4432 34.5901 88.2931 34.8345 89.3641 34.8345C90.5283 34.8345 91.4247 34.6133 92.0534 34.1709C92.682 33.7053 92.9964 33.0883 92.9964 32.3199C92.9964 31.7611 92.8217 31.2954 92.4725 30.9229C92.1465 30.5504 91.5412 30.2477 90.6565 30.0148L87.6529 29.3163C86.1395 28.9438 85.0101 28.3733 84.265 27.605C83.5432 26.8366 83.1824 25.8238 83.1824 24.5665C83.1824 23.5187 83.4501 22.6107 83.9856 21.8423C84.5444 21.074 85.3012 20.4802 86.2558 20.0611C87.2337 19.642 88.3513 19.4325 89.6086 19.4325C90.8659 19.4325 91.9486 19.6537 92.8567 20.096C93.788 20.5384 94.5098 21.1554 95.022 21.9471C95.5576 22.7387 95.837 23.6817 95.8602 24.776H92.7171C92.6938 23.8913 92.4026 23.2044 91.8438 22.7154C91.285 22.2265 90.505 21.982 89.5038 21.982C88.4794 21.982 87.6877 22.2032 87.1289 22.6456C86.5701 23.088 86.2908 23.6934 86.2908 24.4617C86.2908 25.6026 87.1289 26.3826 88.8053 26.8017L91.8089 27.5351C93.2525 27.8611 94.3352 28.3966 95.057 29.1417C95.7788 29.8635 96.1397 30.853 96.1397 32.1104C96.1397 33.1814 95.8487 34.1244 95.2666 34.9393C94.6845 35.7309 93.8811 36.348 92.8567 36.7903C91.8555 37.2095 90.668 37.419 89.2943 37.419C87.2919 37.419 85.697 36.93 84.5095 35.9521C83.3221 34.9742 82.7284 33.6704 82.7284 32.0405ZM98.7326 44.6485V19.9214H101.701L101.946 22.9948C102.504 21.8074 103.331 20.9226 104.425 20.3405C105.543 19.7351 106.777 19.4325 108.127 19.4325C109.757 19.4325 111.166 19.8166 112.353 20.585C113.541 21.3301 114.449 22.3778 115.078 23.7283C115.729 25.0554 116.055 26.5922 116.055 28.3384C116.055 30.0847 115.741 31.6447 115.112 33.0184C114.507 34.3921 113.611 35.4748 112.423 36.2665C111.259 37.0581 109.827 37.4539 108.127 37.4539C106.754 37.4539 105.531 37.1745 104.46 36.6157C103.389 36.0569 102.574 35.2536 102.015 34.2059V44.6485H98.7326ZM102.05 28.4781C102.05 29.619 102.26 30.6551 102.679 31.5865C103.121 32.4945 103.738 33.2047 104.53 33.7169C105.345 34.2292 106.311 34.4853 107.429 34.4853C108.546 34.4853 109.501 34.2292 110.293 33.7169C111.084 33.1814 111.69 32.4596 112.109 31.5515C112.551 30.6435 112.772 29.619 112.772 28.4781C112.772 27.2907 112.551 26.2429 112.109 25.3348C111.69 24.4268 111.084 23.7166 110.293 23.2044C109.501 22.6922 108.546 22.436 107.429 22.436C106.311 22.436 105.345 22.6922 104.53 23.2044C103.738 23.7166 103.121 24.4268 102.679 25.3348C102.26 26.2429 102.05 27.2907 102.05 28.4781ZM118.626 36.9999V19.9214H121.909V36.9999H118.626ZM120.233 15.8701C119.651 15.8701 119.139 15.6605 118.696 15.2414C118.277 14.799 118.067 14.2868 118.067 13.7047C118.067 13.0993 118.277 12.5871 118.696 12.168C119.139 11.7489 119.651 11.5393 120.233 11.5393C120.838 11.5393 121.35 11.7489 121.77 12.168C122.189 12.5871 122.398 13.0993 122.398 13.7047C122.398 14.2868 122.189 14.799 121.77 15.2414C121.35 15.6605 120.838 15.8701 120.233 15.8701ZM123.812 19.9214H133.8V22.6805H123.812V19.9214ZM130.447 36.9999H127.164V14.5778H130.447V36.9999ZM140.488 37.419C138.672 37.419 137.24 36.9417 136.193 35.9871C135.168 35.0324 134.656 33.7868 134.656 32.2501C134.656 30.6901 135.215 29.4444 136.332 28.513C137.45 27.5584 139.01 26.9996 141.012 26.8366L146.391 26.4175V25.9286C146.391 24.9739 146.216 24.2172 145.867 23.6584C145.518 23.0763 145.04 22.6689 144.435 22.436C143.83 22.1799 143.143 22.0519 142.374 22.0519C141.001 22.0519 139.93 22.3429 139.161 22.925C138.416 23.4838 138.044 24.2871 138.044 25.3348H135.18C135.18 24.1474 135.482 23.1113 136.088 22.2265C136.693 21.3417 137.543 20.6548 138.637 20.1659C139.755 19.6769 141.047 19.4325 142.514 19.4325C143.934 19.4325 145.168 19.6886 146.216 20.2008C147.287 20.6898 148.114 21.4465 148.696 22.471C149.301 23.4722 149.604 24.7411 149.604 26.2778V36.9999H146.81L146.461 34.2408C146.018 35.2187 145.25 35.9987 144.156 36.5808C143.085 37.1396 141.862 37.419 140.488 37.419ZM141.431 34.8695C142.991 34.8695 144.214 34.4038 145.099 33.4724C145.983 32.5178 146.426 31.2372 146.426 29.6307V28.7226L142.06 29.0719C140.616 29.2116 139.569 29.5492 138.917 30.0847C138.288 30.6202 137.974 31.3071 137.974 32.1453C137.974 33.0533 138.276 33.7402 138.882 34.2059C139.511 34.6483 140.36 34.8695 141.431 34.8695ZM156.456 36.9999H153.173V11.2949H156.456V36.9999Z" fill="white"/>
<path d="M42.5246 56.7531H41.3633V45.0425H42.5246L46.7934 55.3629L51.0622 45.0425H52.2398V56.7531H51.0785V51.1922C51.0785 50.6797 51.0785 50.2327 51.0785 49.851C51.0894 49.4694 51.0949 49.1369 51.0949 48.8534C51.1058 48.5699 51.1167 48.3191 51.1276 48.101C51.1385 47.872 51.1549 47.654 51.1767 47.4468L47.3658 56.7531H46.2373L42.4265 47.4958C42.4592 47.7139 42.481 48.1337 42.4919 48.7552C42.5137 49.3658 42.5246 50.1182 42.5246 51.0123V56.7531ZM56.6209 56.9493C55.7813 56.9493 55.1216 56.7313 54.6419 56.2951C54.173 55.859 53.9386 55.2974 53.9386 54.6105C53.9386 53.88 54.2003 53.2966 54.7236 52.8605C55.247 52.4243 55.9721 52.1681 56.8989 52.0918L59.5158 51.8791V51.6174C59.5158 51.0941 59.4231 50.6852 59.2378 50.3908C59.0524 50.0855 58.8016 49.8729 58.4854 49.7529C58.1692 49.633 57.8148 49.573 57.4223 49.573C56.7245 49.573 56.1847 49.7202 55.8031 50.0146C55.4215 50.309 55.2307 50.7233 55.2307 51.2576H54.2003C54.2003 50.7233 54.3366 50.2599 54.6091 49.8674C54.8817 49.4749 55.2634 49.1696 55.754 48.9515C56.2447 48.7334 56.8117 48.6244 57.455 48.6244C58.0765 48.6244 58.6217 48.7334 59.0906 48.9515C59.5594 49.1587 59.9301 49.4858 60.2027 49.9328C60.4862 50.369 60.628 50.936 60.628 51.6338V56.7531H59.6794L59.5322 55.3629C59.2923 55.8644 58.9106 56.257 58.3873 56.5405C57.8748 56.813 57.286 56.9493 56.6209 56.9493ZM56.8826 56.0334C57.7221 56.0334 58.3709 55.7663 58.8289 55.232C59.2868 54.6977 59.5158 54.0053 59.5158 53.1549V52.7296L57.177 52.9095C56.4355 52.9749 55.9012 53.1603 55.5741 53.4656C55.247 53.7709 55.0835 54.1416 55.0835 54.5778C55.0835 55.0576 55.247 55.4228 55.5741 55.6736C55.9012 55.9135 56.3374 56.0334 56.8826 56.0334ZM63.5304 56.7531H62.4019V48.837H63.3832L63.5468 50.2109C63.8085 49.7093 64.1792 49.3222 64.659 49.0496C65.1496 48.7661 65.6839 48.6244 66.2618 48.6244C67.3522 48.6244 68.1372 48.9242 68.617 49.5239C69.0968 50.1236 69.3367 50.9196 69.3367 51.9118V56.7531H68.2081V52.1572C68.2081 51.2304 68.0119 50.5816 67.6193 50.2109C67.2377 49.8401 66.7198 49.6548 66.0655 49.6548C65.2587 49.6548 64.6317 49.9274 64.1847 50.4726C63.7485 51.0068 63.5304 51.721 63.5304 52.6151V56.7531ZM73.3687 56.9493C72.5291 56.9493 71.8694 56.7313 71.3897 56.2951C70.9208 55.859 70.6864 55.2974 70.6864 54.6105C70.6864 53.88 70.9481 53.2966 71.4714 52.8605C71.9948 52.4243 72.7199 52.1681 73.6467 52.0918L76.2636 51.8791V51.6174C76.2636 51.0941 76.1709 50.6852 75.9856 50.3908C75.8002 50.0855 75.5494 49.8729 75.2332 49.7529C74.917 49.633 74.5626 49.573 74.1701 49.573C73.4723 49.573 72.9325 49.7202 72.5509 50.0146C72.1693 50.309 71.9785 50.7233 71.9785 51.2576H70.9481C70.9481 50.7233 71.0844 50.2599 71.3569 49.8674C71.6295 49.4749 72.0112 49.1696 72.5018 48.9515C72.9925 48.7334 73.5595 48.6244 74.2028 48.6244C74.8243 48.6244 75.3695 48.7334 75.8384 48.9515C76.3072 49.1587 76.6779 49.4858 76.9505 49.9328C77.234 50.369 77.3758 50.936 77.3758 51.6338V56.7531H76.4272L76.28 55.3629C76.0401 55.8644 75.6584 56.257 75.1351 56.5405C74.6226 56.813 74.0338 56.9493 73.3687 56.9493ZM73.6304 56.0334C74.4699 56.0334 75.1187 55.7663 75.5767 55.232C76.0346 54.6977 76.2636 54.0053 76.2636 53.1549V52.7296L73.9248 52.9095C73.1833 52.9749 72.649 53.1603 72.3219 53.4656C71.9948 53.7709 71.8313 54.1416 71.8313 54.5778C71.8313 55.0576 71.9948 55.4228 72.3219 55.6736C72.649 55.9135 73.0852 56.0334 73.6304 56.0334ZM78.61 52.5661C78.61 51.8464 78.7572 51.1922 79.0516 50.6034C79.346 50.0037 79.7712 49.5239 80.3273 49.1641C80.8834 48.8043 81.5485 48.6244 82.3227 48.6244C83.075 48.6244 83.7183 48.8097 84.2526 49.1805C84.7869 49.5512 85.1685 50.0855 85.3975 50.7833L85.2176 51.0123L85.3648 48.837H86.3461V56.5077C86.3461 57.2928 86.188 57.9743 85.8718 58.5522C85.5556 59.141 85.1086 59.5935 84.5307 59.9097C83.9637 60.2368 83.2931 60.4004 82.5189 60.4004C81.5049 60.4004 80.6653 60.1278 80.0002 59.5826C79.3351 59.0374 78.9207 58.2905 78.7572 57.3419H79.8857C80.0056 57.9852 80.2946 58.4813 80.7525 58.8302C81.2214 59.19 81.8157 59.37 82.5353 59.37C83.3531 59.37 84.0073 59.1192 84.498 58.6176C84.9886 58.116 85.234 57.4509 85.234 56.6222V54.1362L85.3975 54.3488C85.1685 55.0139 84.7706 55.5428 84.2036 55.9353C83.6475 56.3169 82.9933 56.5077 82.2409 56.5077C81.4885 56.5077 80.8398 56.3278 80.2946 55.968C79.7494 55.6082 79.3296 55.1339 79.0352 54.5451C78.7517 53.9454 78.61 53.2857 78.61 52.5661ZM79.7385 52.5497C79.7385 53.0949 79.8421 53.591 80.0493 54.0381C80.2673 54.4851 80.5726 54.8395 80.9652 55.1012C81.3686 55.3629 81.8484 55.4937 82.4045 55.4937C82.9714 55.4937 83.4567 55.3683 83.8601 55.1175C84.2744 54.8558 84.5906 54.5069 84.8087 54.0708C85.0268 53.6237 85.1358 53.1167 85.1358 52.5497C85.1358 51.9827 85.0268 51.4811 84.8087 51.045C84.6015 50.6089 84.2962 50.2654 83.8928 50.0146C83.5003 49.7529 83.0096 49.6221 82.4208 49.6221C81.8538 49.6221 81.3686 49.7584 80.9652 50.031C80.5726 50.2926 80.2673 50.647 80.0493 51.0941C79.8421 51.5302 79.7385 52.0154 79.7385 52.5497ZM91.5306 56.9493C90.7673 56.9493 90.0913 56.7749 89.5025 56.426C88.9246 56.077 88.4721 55.5918 88.145 54.9703C87.8179 54.3488 87.6543 53.6237 87.6543 52.795C87.6543 51.9773 87.8124 51.2576 88.1286 50.6361C88.4557 50.0037 88.9028 49.513 89.4698 49.1641C90.0368 48.8043 90.6964 48.6244 91.4488 48.6244C92.1684 48.6244 92.7954 48.7825 93.3297 49.0987C93.8749 49.4149 94.2947 49.8565 94.5891 50.4235C94.8944 50.9796 95.047 51.6338 95.047 52.3862V52.9422H88.2758L88.3085 52.1245H93.9185C93.9185 51.3612 93.6895 50.7506 93.2316 50.2926C92.7845 49.8238 92.1903 49.5894 91.4488 49.5894C90.9036 49.5894 90.4239 49.7147 90.0095 49.9655C89.6061 50.2163 89.2953 50.5761 89.0773 51.045C88.8592 51.503 88.7501 52.0481 88.7501 52.6805C88.7501 53.7273 88.99 54.5396 89.4698 55.1175C89.9605 55.6954 90.6528 55.9844 91.5469 55.9844C92.1903 55.9844 92.7191 55.8481 93.1334 55.5755C93.5478 55.3029 93.8258 54.9049 93.9676 54.3815H95.047C94.8398 55.2102 94.4364 55.8481 93.8367 56.2951C93.237 56.7313 92.4683 56.9493 91.5306 56.9493ZM97.4892 56.7531H96.3607V48.837H97.342L97.5056 50.3254L97.342 50.2763C97.5056 49.7747 97.8109 49.3767 98.2579 49.0823C98.7159 48.777 99.2502 48.6244 99.8608 48.6244C100.57 48.6244 101.158 48.8206 101.627 49.2132C102.107 49.5948 102.412 50.1182 102.543 50.7833H102.298C102.407 50.1182 102.701 49.5948 103.181 49.2132C103.672 48.8206 104.282 48.6244 105.013 48.6244C105.863 48.6244 106.55 48.8861 107.074 49.4094C107.597 49.9328 107.859 50.6525 107.859 51.5684V56.7531H106.763V51.7974C106.763 51.1213 106.588 50.5925 106.24 50.2109C105.891 49.8292 105.411 49.6384 104.8 49.6384C104.364 49.6384 103.988 49.742 103.672 49.9492C103.356 50.1454 103.11 50.4126 102.936 50.7506C102.772 51.0886 102.69 51.4593 102.69 51.8628V56.7531H101.578V51.781C101.578 51.105 101.398 50.5816 101.038 50.2109C100.69 49.8401 100.215 49.6548 99.6154 49.6548C99.1793 49.6548 98.7977 49.7529 98.4706 49.9492C98.1544 50.1454 97.909 50.4126 97.7346 50.7506C97.571 51.0777 97.4892 51.443 97.4892 51.8464V56.7531ZM112.958 56.9493C112.195 56.9493 111.519 56.7749 110.93 56.426C110.352 56.077 109.9 55.5918 109.573 54.9703C109.246 54.3488 109.082 53.6237 109.082 52.795C109.082 51.9773 109.24 51.2576 109.556 50.6361C109.883 50.0037 110.331 49.513 110.898 49.1641C111.465 48.8043 112.124 48.6244 112.877 48.6244C113.596 48.6244 114.223 48.7825 114.757 49.0987C115.303 49.4149 115.722 49.8565 116.017 50.4235C116.322 50.9796 116.475 51.6338 116.475 52.3862V52.9422H109.704L109.736 52.1245H115.346C115.346 51.3612 115.117 50.7506 114.659 50.2926C114.212 49.8238 113.618 49.5894 112.877 49.5894C112.331 49.5894 111.852 49.7147 111.437 49.9655C111.034 50.2163 110.723 50.5761 110.505 51.045C110.287 51.503 110.178 52.0481 110.178 52.6805C110.178 53.7273 110.418 54.5396 110.898 55.1175C111.388 55.6954 112.081 55.9844 112.975 55.9844C113.618 55.9844 114.147 55.8481 114.561 55.5755C114.976 55.3029 115.254 54.9049 115.395 54.3815H116.475C116.268 55.2102 115.864 55.8481 115.264 56.2951C114.665 56.7313 113.896 56.9493 112.958 56.9493ZM118.917 56.7531H117.788V48.837H118.77L118.933 50.2109C119.195 49.7093 119.566 49.3222 120.045 49.0496C120.536 48.7661 121.07 48.6244 121.648 48.6244C122.739 48.6244 123.524 48.9242 124.004 49.5239C124.483 50.1236 124.723 50.9196 124.723 51.9118V56.7531H123.595V52.1572C123.595 51.2304 123.398 50.5816 123.006 50.2109C122.624 49.8401 122.106 49.6548 121.452 49.6548C120.645 49.6548 120.018 49.9274 119.571 50.4726C119.135 51.0068 118.917 51.721 118.917 52.6151V56.7531ZM125.599 48.837H129.884V49.7856H125.599V48.837ZM128.297 56.7531H127.185V46.3346H128.297V56.7531Z" fill="#E2E2E2"/>
<defs>
<linearGradient id="paint0_linear_33_2" x1="5.45456" y1="23.0705" x2="20.6141" y2="44.6001" gradientUnits="userSpaceOnUse">
<stop stop-color="#605DFF"/>
<stop offset="1" stop-color="#757DFF"/>
</linearGradient>
<linearGradient id="paint1_linear_33_2" x1="1.46891" y1="29.1286" x2="11.6521" y2="45.1178" gradientUnits="userSpaceOnUse">
<stop stop-color="#605DFF"/>
<stop offset="1" stop-color="#757DFF"/>
</linearGradient>
<linearGradient id="paint2_linear_33_2" x1="14.4631" y1="18.6528" x2="15.0983" y2="24.1599" gradientUnits="userSpaceOnUse">
<stop stop-color="#605DFF"/>
<stop offset="1" stop-color="#757DFF"/>
</linearGradient>
</defs>
</svg>
