<svg width="160" height="62" viewBox="0 0 160 62" fill="none" xmlns="http://www.w3.org/2000/svg">
<g clip-path="url(#clip0_288_39)">
<path d="M17.8351 13.4295C19.1224 11.2061 18.7991 8.6167 17.1129 7.64593C15.4267 6.67517 13.0162 7.69065 11.7289 9.91408C10.4415 12.1375 10.7649 14.7269 12.451 15.6977C14.1372 16.6684 16.5477 15.6529 17.8351 13.4295Z" fill="#2E90FA"/>
<path d="M12.0098 56.6638C30.9299 40.1285 1.98422 22.7583 7.78602 5.08984C-6.89616 21.4444 22.1111 38.8357 12.0098 56.6638Z" fill="url(#paint0_linear_288_39)"/>
<path d="M1.0149 16.5801C2.77233 28.9841 12.9088 39.5761 11.3941 52.5731C7.83879 40.6479 -3.4077 29.8647 1.0149 16.5801Z" fill="url(#paint1_linear_288_39)"/>
<path d="M12.4497 21.3168L14.2089 24.4744C14.2089 24.4744 24.4122 16.405 28.2824 16.0542C25.8301 14.4438 15.4333 16.7085 12.4497 21.3168Z" fill="url(#paint2_linear_288_39)"/>
</g>
<path d="M44.7038 37H41.2811V11.749H44.7038V22.6108H57.2071V11.749H60.6298V37H57.2071V25.789H44.7038V37ZM63.7619 28.4433C63.7619 26.697 64.146 25.1487 64.9144 23.7982C65.6828 22.4478 66.7305 21.3884 68.0577 20.62C69.4081 19.8517 70.9448 19.4675 72.6678 19.4675C74.3908 19.4675 75.9159 19.8517 77.243 20.62C78.5702 21.3884 79.618 22.4478 80.3863 23.7982C81.1547 25.1487 81.5389 26.697 81.5389 28.4433C81.5389 30.1896 81.1547 31.7379 80.3863 33.0884C79.618 34.4388 78.5702 35.4982 77.243 36.2666C75.9159 37.0349 74.3908 37.4191 72.6678 37.4191C70.9448 37.4191 69.4081 37.0349 68.0577 36.2666C66.7305 35.4982 65.6828 34.4388 64.9144 33.0884C64.146 31.7379 63.7619 30.1896 63.7619 28.4433ZM67.0798 28.4433C67.0798 29.6308 67.3126 30.6785 67.7783 31.5866C68.2672 32.4946 68.9308 33.2048 69.769 33.717C70.6072 34.2293 71.5735 34.4854 72.6678 34.4854C73.7621 34.4854 74.7284 34.2293 75.5666 33.717C76.4048 33.2048 77.0568 32.4946 77.5224 31.5866C78.0114 30.6785 78.2559 29.6308 78.2559 28.4433C78.2559 27.2326 78.0114 26.1848 77.5224 25.3C77.0568 24.392 76.4048 23.6818 75.5666 23.1696C74.7284 22.6573 73.7621 22.4012 72.6678 22.4012C71.5735 22.4012 70.6072 22.6573 69.769 23.1696C68.9308 23.6818 68.2672 24.392 67.7783 25.3C67.3126 26.1848 67.0798 27.2326 67.0798 28.4433ZM82.7282 32.0406H85.8715C85.8715 32.9021 86.1858 33.589 86.8145 34.1012C87.4431 34.5902 88.293 34.8346 89.364 34.8346C90.5282 34.8346 91.4246 34.6134 92.0533 34.171C92.6819 33.7054 92.9963 33.0884 92.9963 32.32C92.9963 31.7612 92.8216 31.2955 92.4724 30.923C92.1464 30.5505 91.541 30.2478 90.6563 30.0149L87.6527 29.3164C86.1393 28.9439 85.01 28.3734 84.2649 27.6051C83.5431 26.8367 83.1823 25.8239 83.1823 24.5666C83.1823 23.5188 83.45 22.6108 83.9855 21.8424C84.5443 21.0741 85.3011 20.4803 86.2557 20.0612C87.2336 19.6421 88.3512 19.4326 89.6085 19.4326C90.8658 19.4326 91.9485 19.6538 92.8566 20.0961C93.7879 20.5385 94.5097 21.1555 95.0219 21.9472C95.5575 22.7388 95.8369 23.6818 95.8601 24.7761H92.7169C92.6936 23.8914 92.4025 23.2045 91.8437 22.7155C91.2849 22.2266 90.5049 21.9821 89.5037 21.9821C88.4793 21.9821 87.6876 22.2033 87.1288 22.6457C86.57 23.0881 86.2906 23.6935 86.2906 24.4618C86.2906 25.6027 87.1288 26.3827 88.8052 26.8018L91.8088 27.5352C93.2524 27.8612 94.3351 28.3967 95.0569 29.1418C95.7787 29.8636 96.1395 30.8531 96.1395 32.1105C96.1395 33.1815 95.8485 34.1245 95.2664 34.9394C94.6843 35.731 93.881 36.3481 92.8566 36.7904C91.8554 37.2096 90.6679 37.4191 89.2942 37.4191C87.2918 37.4191 85.6969 36.9301 84.5094 35.9522C83.322 34.9743 82.7282 33.6705 82.7282 32.0406ZM98.7325 44.6486V19.9215H101.701L101.946 22.9949C102.504 21.8075 103.331 20.9227 104.425 20.3406C105.543 19.7352 106.777 19.4326 108.127 19.4326C109.757 19.4326 111.166 19.8167 112.353 20.5851C113.541 21.3302 114.449 22.3779 115.078 23.7284C115.729 25.0555 116.055 26.5923 116.055 28.3385C116.055 30.0848 115.741 31.6448 115.112 33.0185C114.507 34.3922 113.611 35.4749 112.423 36.2666C111.259 37.0582 109.827 37.454 108.127 37.454C106.754 37.454 105.531 37.1746 104.46 36.6158C103.389 36.057 102.574 35.2537 102.015 34.206V44.6486H98.7325ZM102.05 28.4782C102.05 29.6191 102.26 30.6552 102.679 31.5866C103.121 32.4946 103.738 33.2048 104.53 33.717C105.345 34.2293 106.311 34.4854 107.429 34.4854C108.546 34.4854 109.501 34.2293 110.293 33.717C111.084 33.1815 111.69 32.4597 112.109 31.5516C112.551 30.6436 112.772 29.6191 112.772 28.4782C112.772 27.2908 112.551 26.243 112.109 25.3349C111.69 24.4269 111.084 23.7167 110.293 23.2045C109.501 22.6923 108.546 22.4361 107.429 22.4361C106.311 22.4361 105.345 22.6923 104.53 23.2045C103.738 23.7167 103.121 24.4269 102.679 25.3349C102.26 26.243 102.05 27.2908 102.05 28.4782ZM118.626 37V19.9215H121.909V37H118.626ZM120.233 15.8702C119.651 15.8702 119.139 15.6606 118.696 15.2415C118.277 14.7991 118.067 14.2869 118.067 13.7048C118.067 13.0994 118.277 12.5872 118.696 12.1681C119.139 11.749 119.651 11.5394 120.233 11.5394C120.838 11.5394 121.35 11.749 121.77 12.1681C122.189 12.5872 122.398 13.0994 122.398 13.7048C122.398 14.2869 122.189 14.7991 121.77 15.2415C121.35 15.6606 120.838 15.8702 120.233 15.8702ZM123.812 19.9215H133.8V22.6806H123.812V19.9215ZM130.447 37H127.164V14.5779H130.447V37ZM140.488 37.4191C138.672 37.4191 137.24 36.9418 136.193 35.9872C135.168 35.0325 134.656 33.7869 134.656 32.2502C134.656 30.6902 135.215 29.4445 136.332 28.5131C137.45 27.5585 139.01 26.9997 141.012 26.8367L146.391 26.4176V25.9287C146.391 24.974 146.216 24.2173 145.867 23.6585C145.518 23.0764 145.04 22.669 144.435 22.4361C143.83 22.18 143.143 22.052 142.374 22.052C141.001 22.052 139.93 22.343 139.161 22.9251C138.416 23.4839 138.044 24.2872 138.044 25.3349H135.18C135.18 24.1475 135.482 23.1114 136.088 22.2266C136.693 21.3418 137.543 20.6549 138.637 20.166C139.755 19.677 141.047 19.4326 142.514 19.4326C143.934 19.4326 145.168 19.6887 146.216 20.2009C147.287 20.6899 148.114 21.4466 148.696 22.4711C149.301 23.4723 149.604 24.7412 149.604 26.2779V37H146.81L146.461 34.2409C146.018 35.2188 145.25 35.9988 144.156 36.5809C143.085 37.1397 141.862 37.4191 140.488 37.4191ZM141.431 34.8696C142.991 34.8696 144.214 34.4039 145.099 33.4725C145.983 32.5179 146.426 31.2373 146.426 29.6308V28.7227L142.06 29.072C140.616 29.2117 139.569 29.5493 138.917 30.0848C138.288 30.6203 137.974 31.3072 137.974 32.1454C137.974 33.0534 138.276 33.7403 138.882 34.206C139.511 34.6484 140.36 34.8696 141.431 34.8696ZM156.456 37H153.173V11.295H156.456V37Z" fill="#2E90FA"/>
<path d="M42.5237 56.7534H41.3624V45.0429H42.5237L46.7925 55.3632L51.0613 45.0429H52.2389V56.7534H51.0776V51.1925C51.0776 50.6801 51.0776 50.233 51.0776 49.8514C51.0885 49.4698 51.094 49.1372 51.094 48.8537C51.1049 48.5702 51.1158 48.3194 51.1267 48.1013C51.1376 47.8724 51.154 47.6543 51.1758 47.4471L47.3649 56.7534H46.2364L42.4256 47.4962C42.4583 47.7143 42.4801 48.1341 42.491 48.7556C42.5128 49.3662 42.5237 50.1185 42.5237 51.0126V56.7534ZM56.62 56.9497C55.7804 56.9497 55.1207 56.7316 54.641 56.2955C54.1721 55.8593 53.9377 55.2978 53.9377 54.6108C53.9377 53.8803 54.1994 53.297 54.7227 52.8608C55.2461 52.4247 55.9712 52.1684 56.898 52.0921L59.5149 51.8795V51.6178C59.5149 51.0944 59.4222 50.6855 59.2369 50.3911C59.0515 50.0858 58.8007 49.8732 58.4845 49.7533C58.1683 49.6333 57.8139 49.5733 57.4214 49.5733C56.7236 49.5733 56.1838 49.7205 55.8022 50.0149C55.4206 50.3093 55.2298 50.7237 55.2298 51.258H54.1994C54.1994 50.7237 54.3357 50.2603 54.6082 49.8677C54.8808 49.4752 55.2625 49.1699 55.7531 48.9518C56.2438 48.7338 56.8108 48.6247 57.4541 48.6247C58.0756 48.6247 58.6208 48.7338 59.0897 48.9518C59.5585 49.159 59.9292 49.4861 60.2018 49.9332C60.4853 50.3693 60.6271 50.9363 60.6271 51.6341V56.7534H59.6785L59.5313 55.3632C59.2914 55.8648 58.9097 56.2573 58.3864 56.5408C57.8739 56.8134 57.2851 56.9497 56.62 56.9497ZM56.8817 56.0338C57.7212 56.0338 58.37 55.7666 58.828 55.2324C59.2859 54.6981 59.5149 54.0057 59.5149 53.1552V52.73L57.1761 52.9099C56.4346 52.9753 55.9003 53.1607 55.5732 53.466C55.2461 53.7713 55.0826 54.142 55.0826 54.5781C55.0826 55.0579 55.2461 55.4232 55.5732 55.674C55.9003 55.9138 56.3365 56.0338 56.8817 56.0338ZM63.5295 56.7534H62.401V48.8373H63.3823L63.5459 50.2112C63.8076 49.7096 64.1783 49.3226 64.6581 49.05C65.1487 48.7665 65.683 48.6247 66.2609 48.6247C67.3513 48.6247 68.1363 48.9246 68.6161 49.5243C69.0959 50.124 69.3358 50.9199 69.3358 51.9122V56.7534H68.2072V52.1575C68.2072 51.2307 68.011 50.5819 67.6184 50.2112C67.2368 49.8405 66.7189 49.6551 66.0646 49.6551C65.2578 49.6551 64.6308 49.9277 64.1838 50.4729C63.7476 51.0072 63.5295 51.7214 63.5295 52.6155V56.7534ZM73.3678 56.9497C72.5282 56.9497 71.8685 56.7316 71.3888 56.2955C70.9199 55.8593 70.6855 55.2978 70.6855 54.6108C70.6855 53.8803 70.9472 53.297 71.4705 52.8608C71.9939 52.4247 72.719 52.1684 73.6458 52.0921L76.2627 51.8795V51.6178C76.2627 51.0944 76.17 50.6855 75.9847 50.3911C75.7993 50.0858 75.5485 49.8732 75.2323 49.7533C74.9161 49.6333 74.5617 49.5733 74.1692 49.5733C73.4714 49.5733 72.9316 49.7205 72.55 50.0149C72.1684 50.3093 71.9776 50.7237 71.9776 51.258H70.9472C70.9472 50.7237 71.0835 50.2603 71.356 49.8677C71.6286 49.4752 72.0103 49.1699 72.5009 48.9518C72.9916 48.7338 73.5586 48.6247 74.2019 48.6247C74.8234 48.6247 75.3686 48.7338 75.8375 48.9518C76.3063 49.159 76.677 49.4861 76.9496 49.9332C77.2331 50.3693 77.3749 50.9363 77.3749 51.6341V56.7534H76.4263L76.2791 55.3632C76.0392 55.8648 75.6575 56.2573 75.1342 56.5408C74.6217 56.8134 74.0329 56.9497 73.3678 56.9497ZM73.6295 56.0338C74.469 56.0338 75.1178 55.7666 75.5758 55.2324C76.0337 54.6981 76.2627 54.0057 76.2627 53.1552V52.73L73.9239 52.9099C73.1824 52.9753 72.6481 53.1607 72.321 53.466C71.9939 53.7713 71.8304 54.142 71.8304 54.5781C71.8304 55.0579 71.9939 55.4232 72.321 55.674C72.6481 55.9138 73.0843 56.0338 73.6295 56.0338ZM78.6091 52.5664C78.6091 51.8468 78.7563 51.1925 79.0507 50.6037C79.3451 50.004 79.7703 49.5243 80.3264 49.1645C80.8825 48.8046 81.5476 48.6247 82.3218 48.6247C83.0741 48.6247 83.7174 48.8101 84.2517 49.1808C84.786 49.5515 85.1676 50.0858 85.3966 50.7837L85.2167 51.0126L85.3639 48.8373H86.3452V56.5081C86.3452 57.2932 86.1871 57.9746 85.8709 58.5525C85.5547 59.1413 85.1077 59.5938 84.5298 59.91C83.9628 60.2371 83.2922 60.4007 82.518 60.4007C81.504 60.4007 80.6644 60.1281 79.9993 59.5829C79.3342 59.0377 78.9198 58.2908 78.7563 57.3422H79.8848C80.0047 57.9855 80.2937 58.4817 80.7516 58.8306C81.2205 59.1904 81.8148 59.3703 82.5344 59.3703C83.3522 59.3703 84.0064 59.1195 84.4971 58.6179C84.9877 58.1164 85.2331 57.4513 85.2331 56.6226V54.1365L85.3966 54.3492C85.1676 55.0143 84.7697 55.5431 84.2027 55.9356C83.6466 56.3173 82.9924 56.5081 82.24 56.5081C81.4876 56.5081 80.8389 56.3282 80.2937 55.9684C79.7485 55.6085 79.3287 55.1342 79.0343 54.5454C78.7508 53.9457 78.6091 53.286 78.6091 52.5664ZM79.7376 52.55C79.7376 53.0952 79.8412 53.5914 80.0484 54.0384C80.2664 54.4855 80.5717 54.8398 80.9643 55.1015C81.3677 55.3632 81.8475 55.494 82.4036 55.494C82.9705 55.494 83.4558 55.3687 83.8592 55.1179C84.2735 54.8562 84.5897 54.5073 84.8078 54.0711C85.0259 53.6241 85.1349 53.117 85.1349 52.55C85.1349 51.9831 85.0259 51.4815 84.8078 51.0453C84.6006 50.6092 84.2953 50.2657 83.8919 50.0149C83.4994 49.7533 83.0087 49.6224 82.4199 49.6224C81.8529 49.6224 81.3677 49.7587 80.9643 50.0313C80.5717 50.293 80.2664 50.6474 80.0484 51.0944C79.8412 51.5306 79.7376 52.0158 79.7376 52.55ZM91.5297 56.9497C90.7664 56.9497 90.0904 56.7752 89.5016 56.4263C88.9237 56.0774 88.4712 55.5922 88.1441 54.9707C87.817 54.3492 87.6534 53.6241 87.6534 52.7954C87.6534 51.9776 87.8115 51.258 88.1277 50.6365C88.4548 50.004 88.9019 49.5134 89.4689 49.1645C90.0359 48.8046 90.6955 48.6247 91.4479 48.6247C92.1675 48.6247 92.7945 48.7828 93.3288 49.099C93.874 49.4152 94.2938 49.8568 94.5882 50.4238C94.8935 50.9799 95.0461 51.6341 95.0461 52.3865V52.9426H88.2749L88.3076 52.1248H93.9176C93.9176 51.3615 93.6886 50.7509 93.2307 50.293C92.7836 49.8241 92.1894 49.5897 91.4479 49.5897C90.9027 49.5897 90.423 49.7151 90.0086 49.9659C89.6052 50.2167 89.2944 50.5765 89.0764 51.0453C88.8583 51.5033 88.7492 52.0485 88.7492 52.6809C88.7492 53.7276 88.9891 54.54 89.4689 55.1179C89.9596 55.6958 90.6519 55.9847 91.546 55.9847C92.1894 55.9847 92.7182 55.8484 93.1325 55.5758C93.5469 55.3032 93.8249 54.9052 93.9667 54.3819H95.0461C94.8389 55.2105 94.4355 55.8484 93.8358 56.2955C93.2361 56.7316 92.4674 56.9497 91.5297 56.9497ZM97.4883 56.7534H96.3598V48.8373H97.3411L97.5047 50.3257L97.3411 50.2766C97.5047 49.7751 97.81 49.3771 98.257 49.0827C98.715 48.7774 99.2493 48.6247 99.8599 48.6247C100.569 48.6247 101.157 48.821 101.626 49.2135C102.106 49.5952 102.411 50.1185 102.542 50.7837H102.297C102.406 50.1185 102.7 49.5952 103.18 49.2135C103.671 48.821 104.281 48.6247 105.012 48.6247C105.862 48.6247 106.549 48.8864 107.073 49.4098C107.596 49.9332 107.858 50.6528 107.858 51.5687V56.7534H106.762V51.7977C106.762 51.1217 106.587 50.5928 106.239 50.2112C105.89 49.8296 105.41 49.6388 104.799 49.6388C104.363 49.6388 103.987 49.7424 103.671 49.9495C103.355 50.1458 103.109 50.4129 102.935 50.7509C102.771 51.089 102.689 51.4597 102.689 51.8631V56.7534H101.577V51.7813C101.577 51.1053 101.397 50.5819 101.037 50.2112C100.689 49.8405 100.214 49.6551 99.6145 49.6551C99.1784 49.6551 98.7968 49.7533 98.4697 49.9495C98.1535 50.1458 97.9081 50.4129 97.7337 50.7509C97.5701 51.0781 97.4883 51.4433 97.4883 51.8468V56.7534ZM112.957 56.9497C112.194 56.9497 111.518 56.7752 110.929 56.4263C110.351 56.0774 109.899 55.5922 109.572 54.9707C109.245 54.3492 109.081 53.6241 109.081 52.7954C109.081 51.9776 109.239 51.258 109.555 50.6365C109.882 50.004 110.33 49.5134 110.897 49.1645C111.464 48.8046 112.123 48.6247 112.876 48.6247C113.595 48.6247 114.222 48.7828 114.756 49.099C115.302 49.4152 115.721 49.8568 116.016 50.4238C116.321 50.9799 116.474 51.6341 116.474 52.3865V52.9426H109.703L109.735 52.1248H115.345C115.345 51.3615 115.116 50.7509 114.658 50.293C114.211 49.8241 113.617 49.5897 112.876 49.5897C112.33 49.5897 111.851 49.7151 111.436 49.9659C111.033 50.2167 110.722 50.5765 110.504 51.0453C110.286 51.5033 110.177 52.0485 110.177 52.6809C110.177 53.7276 110.417 54.54 110.897 55.1179C111.387 55.6958 112.08 55.9847 112.974 55.9847C113.617 55.9847 114.146 55.8484 114.56 55.5758C114.975 55.3032 115.253 54.9052 115.394 54.3819H116.474C116.267 55.2105 115.863 55.8484 115.263 56.2955C114.664 56.7316 113.895 56.9497 112.957 56.9497ZM118.916 56.7534H117.787V48.8373H118.769L118.932 50.2112C119.194 49.7096 119.565 49.3226 120.044 49.05C120.535 48.7665 121.069 48.6247 121.647 48.6247C122.738 48.6247 123.523 48.9246 124.003 49.5243C124.482 50.124 124.722 50.9199 124.722 51.9122V56.7534H123.594V52.1575C123.594 51.2307 123.397 50.5819 123.005 50.2112C122.623 49.8405 122.105 49.6551 121.451 49.6551C120.644 49.6551 120.017 49.9277 119.57 50.4729C119.134 51.0072 118.916 51.7214 118.916 52.6155V56.7534ZM125.598 48.8373H129.883V49.786H125.598V48.8373ZM128.296 56.7534H127.184V46.335H128.296V56.7534Z" fill="#2E90FA"/>
<defs>
<linearGradient id="paint0_linear_288_39" x1="5.45334" y1="23.0705" x2="20.6129" y2="44.6001" gradientUnits="userSpaceOnUse">
<stop stop-color="#2E90FA"/>
<stop offset="1" stop-color="#5AC2FF"/>
</linearGradient>
<linearGradient id="paint1_linear_288_39" x1="1.46866" y1="29.1286" x2="11.6519" y2="45.1178" gradientUnits="userSpaceOnUse">
<stop stop-color="#2E90FA"/>
<stop offset="1" stop-color="#5AC2FF"/>
</linearGradient>
<linearGradient id="paint2_linear_288_39" x1="14.4636" y1="18.6533" x2="15.0988" y2="24.1604" gradientUnits="userSpaceOnUse">
<stop stop-color="#2E90FA"/>
<stop offset="1" stop-color="#5AC2FF"/>
</linearGradient>
<clipPath id="clip0_288_39">
<rect width="28.2825" height="51.5739" fill="white" transform="translate(0 5.08984)"/>
</clipPath>
</defs>
</svg>
