<svg width="121" height="43" viewBox="0 0 121 43" fill="none" xmlns="http://www.w3.org/2000/svg">
<path d="M13.7314 6.51078C14.7226 4.79892 14.4737 2.80527 13.1754 2.05785C11.8771 1.31043 10.0212 2.09228 9.03011 3.80416C8.0389 5.51603 8.2879 7.50968 9.58607 8.25713C10.8843 9.0045 12.7402 8.22264 13.7314 6.51078Z" fill="#2E90FA"/>
<path d="M9.24638 39.7981C23.8135 27.0671 1.52741 13.6933 5.99438 0.0898438C-5.30984 12.6817 17.0237 26.0717 9.24638 39.7981Z" fill="url(#paint0_linear_9_24)"/>
<path d="M0.781102 8.93651C2.1342 18.4867 9.93855 26.6418 8.77234 36.6485C6.035 27.467 -2.62398 19.1647 0.781102 8.93651Z" fill="url(#paint1_linear_9_24)"/>
<path d="M9.58507 12.5834L10.9395 15.0146C10.9395 15.0146 18.7953 8.8017 21.7751 8.53161C19.887 7.29172 11.8822 9.03537 9.58507 12.5834Z" fill="url(#paint2_linear_9_24)"/>
<path d="M34.4184 24.6584H31.7832V5.21692H34.4184V13.5797H44.045V5.21692H46.6803V24.6584H44.045V16.0267H34.4184V24.6584ZM49.0918 18.0703C49.0918 16.7258 49.3875 15.5337 49.9791 14.4939C50.5707 13.4542 51.3774 12.6386 52.3992 12.0469C53.4389 11.4554 54.6221 11.1596 55.9487 11.1596C57.2752 11.1596 58.4495 11.4554 59.4712 12.0469C60.4931 12.6386 61.2998 13.4542 61.8913 14.4939C62.483 15.5337 62.7788 16.7258 62.7788 18.0703C62.7788 19.4148 62.483 20.6069 61.8913 21.6467C61.2998 22.6864 60.4931 23.5021 59.4712 24.0937C58.4495 24.6852 57.2752 24.981 55.9487 24.981C54.6221 24.981 53.4389 24.6852 52.3992 24.0937C51.3774 23.5021 50.5707 22.6864 49.9791 21.6467C49.3875 20.6069 49.0918 19.4148 49.0918 18.0703ZM51.6463 18.0703C51.6463 18.9846 51.8255 19.7913 52.1841 20.4904C52.5605 21.1895 53.0714 21.7363 53.7168 22.1307C54.3621 22.5251 55.1061 22.7223 55.9487 22.7223C56.7912 22.7223 57.5352 22.5251 58.1805 22.1307C58.8259 21.7363 59.3279 21.1895 59.6864 20.4904C60.0628 19.7913 60.2511 18.9846 60.2511 18.0703C60.2511 17.1382 60.0628 16.3314 59.6864 15.6502C59.3279 14.9511 58.8259 14.4043 58.1805 14.01C57.5352 13.6155 56.7912 13.4183 55.9487 13.4183C55.1061 13.4183 54.3621 13.6155 53.7168 14.01C53.0714 14.4043 52.5605 14.9511 52.1841 15.6502C51.8255 16.3314 51.6463 17.1382 51.6463 18.0703ZM63.6944 20.84H66.1146C66.1146 21.5033 66.3565 22.0321 66.8406 22.4265C67.3246 22.803 67.9789 22.9912 68.8035 22.9912C69.6999 22.9912 70.39 22.8209 70.8741 22.4802C71.3581 22.1218 71.6001 21.6467 71.6001 21.0551C71.6001 20.6249 71.4656 20.2663 71.1968 19.9795C70.9458 19.6927 70.4797 19.4597 69.7985 19.2803L67.486 18.7425C66.3207 18.4557 65.4513 18.0165 64.8776 17.425C64.3219 16.8334 64.0441 16.0536 64.0441 15.0855C64.0441 14.2788 64.2502 13.5797 64.6625 12.9881C65.0927 12.3966 65.6754 11.9394 66.4104 11.6167C67.1633 11.294 68.0237 11.1327 68.9918 11.1327C69.9598 11.1327 70.7934 11.303 71.4926 11.6436C72.2096 11.9842 72.7653 12.4592 73.1597 13.0688C73.5721 13.6783 73.7872 14.4043 73.8051 15.2468H71.385C71.3671 14.5657 71.143 14.0368 70.7127 13.6603C70.2825 13.2839 69.6819 13.0957 68.9111 13.0957C68.1224 13.0957 67.5128 13.266 67.0826 13.6066C66.6523 13.9472 66.4372 14.4133 66.4372 15.0049C66.4372 15.8833 67.0826 16.4838 68.3733 16.8065L70.6858 17.3711C71.7973 17.6221 72.6309 18.0344 73.1866 18.6081C73.7424 19.1638 74.0202 19.9257 74.0202 20.8938C74.0202 21.7184 73.7961 22.4444 73.348 23.0718C72.8998 23.6813 72.2813 24.1564 71.4926 24.497C70.7217 24.8197 69.8074 24.981 68.7498 24.981C67.2081 24.981 65.9801 24.6045 65.0658 23.8516C64.1516 23.0987 63.6944 22.0949 63.6944 20.84ZM76.0166 30.5472V11.5091H78.3021L78.4908 13.8754C78.9204 12.9612 79.5571 12.28 80.3994 11.8318C81.2602 11.3657 82.2103 11.1327 83.2497 11.1327C84.5047 11.1327 85.5895 11.4285 86.5034 12.0201C87.4181 12.5937 88.1172 13.4004 88.6015 14.4402C89.1027 15.462 89.3537 16.6452 89.3537 17.9896C89.3537 19.3342 89.1119 20.5352 88.6276 21.5929C88.1618 22.6505 87.472 23.4841 86.5573 24.0937C85.6611 24.7032 84.5586 25.0079 83.2497 25.0079C82.1926 25.0079 81.2509 24.7928 80.4264 24.3626C79.6018 23.9323 78.9743 23.3138 78.5439 22.5072V30.5472H76.0166ZM78.5708 18.0972C78.5708 18.9756 78.7325 19.7733 79.0551 20.4904C79.3954 21.1895 79.8705 21.7363 80.4803 22.1307C81.1077 22.5251 81.8515 22.7223 82.7123 22.7223C83.5723 22.7223 84.3076 22.5251 84.9173 22.1307C85.5264 21.7184 85.9929 21.1627 86.3155 20.4635C86.6558 19.7644 86.826 18.9756 86.826 18.0972C86.826 17.183 86.6558 16.3762 86.3155 15.6771C85.9929 14.978 85.5264 14.4312 84.9173 14.0368C84.3076 13.6425 83.5723 13.4452 82.7123 13.4452C81.8515 13.4452 81.1077 13.6425 80.4803 14.0368C79.8705 14.4312 79.3954 14.978 79.0551 15.6771C78.7325 16.3762 78.5708 17.183 78.5708 18.0972ZM91.3331 24.6584V11.5091H93.8608V24.6584H91.3331ZM92.5704 8.38994C92.1223 8.38994 91.7281 8.22856 91.387 7.90589C91.0644 7.56527 90.9028 7.17091 90.9028 6.72274C90.9028 6.25663 91.0644 5.86227 91.387 5.53959C91.7281 5.21692 92.1223 5.05554 92.5704 5.05554C93.0362 5.05554 93.4304 5.21692 93.7538 5.53959C94.0764 5.86227 94.2373 6.25663 94.2373 6.72274C94.2373 7.17091 94.0764 7.56527 93.7538 7.90589C93.4304 8.22856 93.0362 8.38994 92.5704 8.38994ZM95.326 11.5091H103.016V13.6335H95.326V11.5091ZM100.434 24.6584H97.9068V7.39496H100.434V24.6584ZM108.165 24.981C106.767 24.981 105.665 24.6136 104.858 23.8786C104.069 23.1435 103.675 22.1845 103.675 21.0014C103.675 19.8003 104.105 18.8412 104.966 18.1241C105.826 17.3891 107.027 16.9589 108.569 16.8334L112.71 16.5107V16.1343C112.71 15.3992 112.575 14.8166 112.307 14.3864C112.038 13.9382 111.67 13.6245 111.204 13.4452C110.738 13.248 110.209 13.1495 109.617 13.1495C108.56 13.1495 107.736 13.3735 107.144 13.8217C106.57 14.2519 106.284 14.8704 106.284 15.6771H104.079C104.079 14.7629 104.311 13.9651 104.778 13.2839C105.243 12.6027 105.898 12.0738 106.74 11.6974C107.601 11.3209 108.596 11.1327 109.725 11.1327C110.818 11.1327 111.769 11.3299 112.575 11.7243C113.4 12.1008 114.037 12.6834 114.485 13.4722C114.951 14.243 115.184 15.22 115.184 16.4031V24.6584H113.033L112.764 22.5341C112.423 23.287 111.832 23.8875 110.989 24.3357C110.165 24.7659 109.223 24.981 108.165 24.981ZM108.891 23.0181C110.092 23.0181 111.034 22.6595 111.715 21.9424C112.396 21.2075 112.737 20.2215 112.737 18.9846V18.2854L109.376 18.5544C108.264 18.6619 107.458 18.9219 106.956 19.3342C106.471 19.7465 106.23 20.2753 106.23 20.9207C106.23 21.6198 106.462 22.1486 106.929 22.5072C107.413 22.8478 108.067 23.0181 108.891 23.0181ZM120.46 24.6584H117.932V4.86737H120.46V24.6584Z" fill="#2E90FA"/>
<path d="M32.7399 39.867H31.8458V30.8508H32.7399L36.0265 38.7967L39.3132 30.8508H40.2199V39.867H39.3258V35.5856C39.3258 35.191 39.3258 34.8468 39.3258 34.553C39.3342 34.2592 39.3384 34.0031 39.3384 33.7849C39.3468 33.5666 39.3552 33.3735 39.3636 33.2056C39.372 33.0293 39.3846 32.8614 39.4014 32.7019L36.4673 39.867H35.5984L32.6643 32.7397C32.6895 32.9076 32.7063 33.2308 32.7147 33.7093C32.7315 34.1794 32.7399 34.7587 32.7399 35.447V39.867ZM43.593 40.0182C42.9466 40.0182 42.4387 39.8503 42.0693 39.5145C41.7083 39.1787 41.5278 38.7463 41.5278 38.2174C41.5278 37.655 41.7293 37.2059 42.1322 36.87C42.5352 36.5343 43.0935 36.3369 43.8071 36.2782L45.8219 36.1145V35.913C45.8219 35.51 45.7505 35.1952 45.6078 34.9685C45.4651 34.7335 45.272 34.5698 45.0285 34.4775C44.7851 34.3851 44.5122 34.3389 44.21 34.3389C43.6728 34.3389 43.2572 34.4522 42.9634 34.6789C42.6696 34.9056 42.5227 35.2246 42.5227 35.636H41.7293C41.7293 35.2246 41.8343 34.8678 42.0441 34.5656C42.254 34.2634 42.5478 34.0283 42.9256 33.8604C43.3034 33.6925 43.7399 33.6085 44.2352 33.6085C44.7137 33.6085 45.1335 33.6925 45.4945 33.8604C45.8554 34.0199 46.1409 34.2718 46.3507 34.616C46.569 34.9518 46.6782 35.3883 46.6782 35.9256V39.867H45.9478L45.8345 38.7967C45.6498 39.1829 45.3559 39.4851 44.953 39.7034C44.5584 39.9132 44.1051 40.0182 43.593 40.0182ZM43.7945 39.313C44.4409 39.313 44.9404 39.1073 45.293 38.696C45.6456 38.2846 45.8219 37.7515 45.8219 37.0967V36.7693L44.0212 36.9078C43.4503 36.9582 43.0389 37.1009 42.7871 37.336C42.5352 37.571 42.4093 37.8565 42.4093 38.1922C42.4093 38.5616 42.5352 38.8429 42.7871 39.036C43.0389 39.2206 43.3747 39.313 43.7945 39.313ZM48.9128 39.867H48.044V33.7722H48.7995L48.9255 34.83C49.1269 34.4438 49.4124 34.1459 49.7818 33.936C50.1595 33.7177 50.5709 33.6085 51.0158 33.6085C51.8553 33.6085 52.4597 33.8394 52.8291 34.3012C53.1986 34.7629 53.3833 35.3757 53.3833 36.1397V39.867H52.5143V36.3285C52.5143 35.615 52.3633 35.1154 52.061 34.83C51.7672 34.5446 51.3684 34.4019 50.8647 34.4019C50.2435 34.4019 49.7608 34.6118 49.4166 35.0315C49.0808 35.4429 48.9128 35.9928 48.9128 36.6812V39.867ZM56.4876 40.0182C55.8412 40.0182 55.3333 39.8503 54.9639 39.5145C54.6029 39.1787 54.4224 38.7463 54.4224 38.2174C54.4224 37.655 54.6239 37.2059 55.0268 36.87C55.4298 36.5343 55.9881 36.3369 56.7016 36.2782L58.7165 36.1145V35.913C58.7165 35.51 58.6451 35.1952 58.5024 34.9685C58.3597 34.7335 58.1666 34.5698 57.9231 34.4775C57.6797 34.3851 57.4068 34.3389 57.1046 34.3389C56.5674 34.3389 56.1518 34.4522 55.858 34.6789C55.5642 34.9056 55.4173 35.2246 55.4173 35.636H54.6239C54.6239 35.2246 54.7289 34.8678 54.9387 34.5656C55.1486 34.2634 55.4424 34.0283 55.8202 33.8604C56.198 33.6925 56.6345 33.6085 57.1298 33.6085C57.6083 33.6085 58.0281 33.6925 58.3891 33.8604C58.75 34.0199 59.0355 34.2718 59.2453 34.616C59.4636 34.9518 59.5728 35.3883 59.5728 35.9256V39.867H58.8424L58.7291 38.7967C58.5444 39.1829 58.2505 39.4851 57.8476 39.7034C57.453 39.9132 56.9997 40.0182 56.4876 40.0182ZM56.6891 39.313C57.3355 39.313 57.835 39.1073 58.1876 38.696C58.5402 38.2846 58.7165 37.7515 58.7165 37.0967V36.7693L56.9158 36.9078C56.3449 36.9582 55.9335 37.1009 55.6816 37.336C55.4298 37.571 55.3039 37.8565 55.3039 38.1922C55.3039 38.5616 55.4298 38.8429 55.6816 39.036C55.9335 39.2206 56.2693 39.313 56.6891 39.313ZM60.523 36.6434C60.523 36.0893 60.6364 35.5856 60.863 35.1322C61.0897 34.6705 61.4171 34.3012 61.8452 34.0241C62.2734 33.747 62.7855 33.6085 63.3815 33.6085C63.9608 33.6085 64.4561 33.7513 64.8674 34.0367C65.2788 34.3221 65.5726 34.7335 65.7489 35.2708L65.6104 35.447L65.7237 33.7722H66.4793V39.6782C66.4793 40.2827 66.3575 40.8073 66.1141 41.2522C65.8706 41.7056 65.5265 42.054 65.0815 42.2974C64.645 42.5492 64.1287 42.6752 63.5326 42.6752C62.7519 42.6752 62.1055 42.4653 61.5934 42.0456C61.0813 41.6258 60.7623 41.0507 60.6364 40.3204H61.5052C61.5975 40.8157 61.8201 41.1977 62.1726 41.4663C62.5336 41.7434 62.9912 41.8819 63.5452 41.8819C64.1749 41.8819 64.6786 41.6888 65.0564 41.3026C65.4341 40.9165 65.623 40.4044 65.623 39.7663V37.8522L65.7489 38.016C65.5726 38.5281 65.2662 38.9352 64.8297 39.2374C64.4015 39.5313 63.8979 39.6782 63.3186 39.6782C62.7393 39.6782 62.2398 39.5397 61.8201 39.2627C61.4003 38.9856 61.0771 38.6204 60.8504 38.167C60.6321 37.7053 60.523 37.1974 60.523 36.6434ZM61.3919 36.6307C61.3919 37.0505 61.4717 37.4325 61.6312 37.7767C61.799 38.1209 62.0341 38.3937 62.3364 38.5952C62.647 38.7967 63.0164 38.8974 63.4445 38.8974C63.881 38.8974 64.2546 38.8009 64.5652 38.6078C64.8842 38.4063 65.1277 38.1377 65.2956 37.8019C65.4635 37.4577 65.5474 37.0673 65.5474 36.6307C65.5474 36.1943 65.4635 35.8081 65.2956 35.4722C65.1361 35.1365 64.901 34.872 64.5904 34.6789C64.2882 34.4775 63.9104 34.3767 63.4571 34.3767C63.0205 34.3767 62.647 34.4816 62.3364 34.6915C62.0341 34.893 61.799 35.1659 61.6312 35.51C61.4717 35.8459 61.3919 36.2194 61.3919 36.6307ZM70.471 40.0182C69.8833 40.0182 69.3628 39.8838 68.9095 39.6152C68.4645 39.3466 68.1161 38.973 67.8643 38.4945C67.6124 38.016 67.4865 37.4577 67.4865 36.8197C67.4865 36.19 67.6082 35.636 67.8517 35.1575C68.1035 34.6705 68.4477 34.2928 68.8843 34.0241C69.3208 33.747 69.8287 33.6085 70.408 33.6085C70.962 33.6085 71.4448 33.7303 71.8561 33.9737C72.2759 34.2172 72.5991 34.5572 72.8258 34.9937C73.0608 35.4219 73.1783 35.9256 73.1783 36.5049V36.933H67.965L67.9902 36.3034H72.3095C72.3095 35.7157 72.1332 35.2456 71.7806 34.893C71.4364 34.532 70.9789 34.3515 70.408 34.3515C69.9882 34.3515 69.6189 34.4481 69.2998 34.6412C68.9892 34.8343 68.7499 35.1113 68.5821 35.4722C68.4142 35.8249 68.3302 36.2446 68.3302 36.7315C68.3302 37.5374 68.5149 38.1629 68.8843 38.6078C69.2621 39.0528 69.7951 39.2752 70.4835 39.2752C70.9789 39.2752 71.386 39.1703 71.705 38.9604C72.0241 38.7505 72.2381 38.4441 72.3473 38.0412H73.1783C73.0188 38.6791 72.7082 39.1703 72.2465 39.5145C71.7848 39.8503 71.1929 40.0182 70.471 40.0182ZM75.0586 39.867H74.1898V33.7722H74.9453L75.0713 34.9182L74.9453 34.8804C75.0713 34.4943 75.3063 34.1878 75.6505 33.9612C76.0031 33.7261 76.4145 33.6085 76.8846 33.6085C77.4306 33.6085 77.8833 33.7597 78.2444 34.0619C78.6139 34.3558 78.8488 34.7587 78.9496 35.2708H78.761C78.8449 34.7587 79.0713 34.3558 79.4409 34.0619C79.8189 33.7597 80.2885 33.6085 80.8514 33.6085C81.5058 33.6085 82.0347 33.81 82.4382 34.213C82.8408 34.616 83.0426 35.17 83.0426 35.8752V39.867H82.1987V36.0515C82.1987 35.531 82.064 35.1238 81.7961 34.83C81.5274 34.5362 81.1578 34.3893 80.6874 34.3893C80.3517 34.3893 80.0622 34.4691 79.8189 34.6285C79.5756 34.7797 79.3862 34.9853 79.2522 35.2456C79.1259 35.5059 79.0628 35.7913 79.0628 36.1019V39.867H78.2067V36.0389C78.2067 35.5184 78.0681 35.1154 77.7909 34.83C77.523 34.5446 77.1572 34.4019 76.6957 34.4019C76.3599 34.4019 76.0661 34.4775 75.8143 34.6285C75.5708 34.7797 75.3819 34.9853 75.2476 35.2456C75.1216 35.4975 75.0586 35.7787 75.0586 36.0893V39.867ZM86.9684 40.0182C86.381 40.0182 85.8605 39.8838 85.407 39.6152C84.962 39.3466 84.614 38.973 84.3622 38.4945C84.1105 38.016 83.9842 37.4577 83.9842 36.8197C83.9842 36.19 84.1058 35.636 84.3491 35.1575C84.6009 34.6705 84.9458 34.2928 85.3824 34.0241C85.8189 33.747 86.3263 33.6085 86.9061 33.6085C87.4596 33.6085 87.9424 33.7303 88.3535 33.9737C88.7739 34.2172 89.0965 34.5572 89.3236 34.9937C89.5585 35.4219 89.6763 35.9256 89.6763 36.5049V36.933H84.4631L84.4877 36.3034H88.807C88.807 35.7157 88.6307 35.2456 88.2781 34.893C87.9339 34.532 87.4766 34.3515 86.9061 34.3515C86.4857 34.3515 86.1169 34.4481 85.7974 34.6412C85.4871 34.8343 85.2476 35.1113 85.0798 35.4722C84.912 35.8249 84.828 36.2446 84.828 36.7315C84.828 37.5374 85.0128 38.1629 85.3824 38.6078C85.7596 39.0528 86.2932 39.2752 86.9815 39.2752C87.4766 39.2752 87.8839 39.1703 88.2026 38.9604C88.5221 38.7505 88.7362 38.4441 88.8447 38.0412H89.6763C89.5169 38.6791 89.2058 39.1703 88.7439 39.5145C88.2827 39.8503 87.6906 40.0182 86.9684 40.0182ZM91.5564 39.867H90.6872V33.7722H91.4433L91.5687 34.83C91.7705 34.4438 92.0561 34.1459 92.4249 33.936C92.8029 33.7177 93.2141 33.6085 93.6591 33.6085C94.4991 33.6085 95.1035 33.8394 95.473 34.3012C95.8418 34.7629 96.0266 35.3757 96.0266 36.1397V39.867H95.1582V36.3285C95.1582 35.615 95.0065 35.1154 94.7047 34.83C94.4105 34.5446 94.0117 34.4019 93.5082 34.4019C92.8869 34.4019 92.4041 34.6118 92.06 35.0315C91.7243 35.4429 91.5564 35.9928 91.5564 36.6812V39.867ZM96.7011 33.7722H100V34.5027H96.7011V33.7722ZM98.7784 39.867H97.9222V31.8456H98.7784V39.867Z" fill="#2E90FA"/>
<defs>
<linearGradient id="paint0_linear_9_24" x1="15.3219" y1="14.9367" x2="17.2328" y2="41.3899" gradientUnits="userSpaceOnUse">
<stop stop-color="#2E90FA"/>
<stop offset="1" stop-color="#5AC2FF"/>
</linearGradient>
<linearGradient id="paint1_linear_9_24" x1="15.322" y1="14.9367" x2="17.2329" y2="41.3898" gradientUnits="userSpaceOnUse">
<stop stop-color="#2E90FA"/>
<stop offset="1" stop-color="#5AC2FF"/>
</linearGradient>
<linearGradient id="paint2_linear_9_24" x1="15.3219" y1="14.9367" x2="17.2329" y2="41.39" gradientUnits="userSpaceOnUse">
<stop stop-color="#2E90FA"/>
<stop offset="1" stop-color="#5AC2FF"/>
</linearGradient>
</defs>
</svg>
