<svg width="138" height="35" viewBox="0 0 138 35" fill="none" xmlns="http://www.w3.org/2000/svg">
<path fill-rule="evenodd" clip-rule="evenodd" d="M19.2933 10.4553C18.5966 10.855 17.8541 10.9845 17.0648 10.845C15.7155 10.5063 14.9486 9.65628 14.7646 8.29479C14.753 7.93984 14.7646 7.58574 14.8005 7.23219C15.1642 6.03578 15.9665 5.32742 17.2086 5.10713C18.6154 4.94979 19.6692 5.46983 20.3714 6.66554C20.9243 8.18366 20.5648 9.44669 19.2933 10.4553ZM25.1518 5.60293C24.8958 4.41356 24.3567 3.37435 23.5344 2.48612C22.4058 1.2683 21.0163 0.489091 19.3652 0.148365C19.0301 0.100897 18.6944 0.0541365 18.3588 0.00666872C17.5148 -0.0188258 16.6766 0.0286393 15.8429 0.148365C15.6789 0.22992 15.5114 0.300773 15.3396 0.360917C14.8242 0.473601 14.3448 0.662769 13.902 0.927574C13.2471 1.24999 12.672 1.67494 12.1767 2.20272C11.2178 3.07968 10.5464 4.14228 10.164 5.39038C10.0705 5.66533 10.0224 5.94859 10.0202 6.24044C9.9505 7.72461 9.92606 9.21217 9.94834 10.7033C8.60124 10.6807 7.25916 10.704 5.92284 10.7741C4.85609 10.9696 3.89716 11.3947 3.04748 12.0493C2.9756 12.0726 2.92816 12.1201 2.90372 12.191C1.96708 12.9489 1.24824 13.8698 0.747208 14.9537C-0.589109 18.8936 0.465423 22.0459 3.9101 24.4104C4.39316 24.696 4.89635 24.9439 5.41966 25.1543C6.09034 23.9048 6.95294 22.7947 8.00747 21.8249C8.56385 21.3021 9.13893 20.7942 9.73269 20.3019C8.77448 20.2785 7.81627 20.2544 6.85733 20.231C6.05727 19.9981 5.53036 19.4901 5.27589 18.708C5.23923 18.4863 5.21551 18.2618 5.204 18.0351C5.2385 16.8684 5.83731 16.1833 7.0011 15.9808C8.77448 15.9454 10.5471 15.9333 12.3205 15.9454C13.5742 15.9022 14.7962 15.6896 15.9865 15.3078C17.0785 14.9939 18.1094 14.5456 19.0776 13.9619C19.2961 13.8782 19.4881 13.7599 19.6526 13.6077C20.4448 13.099 21.2119 12.5565 21.953 11.9784C22.2649 11.6475 22.5762 11.3175 22.8875 10.9867C23.5135 10.3903 24.0168 9.70516 24.397 8.9323C24.7923 8.3317 25.0318 7.67067 25.1158 6.94893C25.1993 6.51327 25.2107 6.06409 25.1518 5.60293Z" fill="url(#paint0_linear_5_30)"/>
<path fill-rule="evenodd" clip-rule="evenodd" d="M35.1065 18.8507C35.0367 19.4811 34.8929 20.0954 34.6752 20.6925C34.1347 21.9576 33.3195 23.0202 32.2311 23.8803C32.1672 23.9234 32.0953 23.9468 32.0155 23.951C31.536 24.3293 31.0091 24.6361 30.434 24.8719C29.7626 25.1227 29.0683 25.2644 28.3494 25.297H25.2584V28.4846C25.1485 29.9992 24.5856 31.3217 23.5691 32.4516C23.0825 32.9432 22.5678 33.3917 22.0237 33.7975C21.7498 33.8975 21.486 34.0157 21.233 34.1518C20.6464 34.4471 20.023 34.6597 19.364 34.7893C18.2677 35.0443 17.1657 35.0677 16.0572 34.8601C16.0062 34.7964 15.9343 34.7724 15.8417 34.7893C15.4772 34.705 15.1177 34.5987 14.7634 34.4705C12.1266 33.3435 10.5452 31.3954 10.019 28.6263C10.0068 26.9858 10.51 25.5222 11.5286 24.2344C12.0497 23.5671 12.6133 22.9295 13.2178 22.3217C13.9388 21.67 14.6462 21.0091 15.3384 20.3384C15.4039 20.3886 15.4276 20.4595 15.4103 20.5508C15.3989 23.1718 15.4103 25.7928 15.4462 28.4138C16.0645 29.9794 17.1787 30.4632 18.7888 29.866C19.494 29.4558 19.9015 28.8538 20.0109 28.0597V20.2675H28.3494C28.7059 20.1747 29.0417 20.0217 29.3558 19.8071C30.3234 18.8876 30.4671 17.8603 29.7871 16.7256C29.4204 16.2736 28.941 16.0257 28.3494 15.9817C26.5761 15.9696 24.8027 15.9343 23.0301 15.8755C23.9444 15.0452 24.8545 14.2192 25.7616 13.3961C26.3367 12.8769 26.9117 12.357 27.4868 11.8377C27.9166 11.4382 28.348 11.0372 28.7807 10.6335C28.8267 10.5307 28.91 10.4839 29.0322 10.4918C31.1435 11.0033 32.8084 12.1367 34.0282 13.892C34.6845 14.9341 35.0677 16.0675 35.1784 17.2922V17.4339C35.2021 17.9192 35.1776 18.3916 35.1065 18.8507Z" fill="url(#paint1_linear_5_30)"/>
<path d="M61.2487 8.60019H52.7419L54.9079 6.015V30.173H49.5103V6.015L51.7462 8.60019H43.187V4.40796H61.2487V8.60019ZM62.451 30.173V11.6222H67.8835V18.0154L66.7655 17.3167C66.8936 16.4433 67.1265 15.6398 67.4642 14.9061C67.802 14.1725 68.2387 13.5378 68.7743 13.0021C69.31 12.4548 69.9447 12.0298 70.6783 11.727C71.4236 11.4242 72.2737 11.2728 73.2286 11.2728C73.9739 11.2728 74.5562 11.331 74.9754 11.4475C75.4063 11.5523 75.6741 11.6338 75.7789 11.692L74.8881 16.5481C74.7833 16.4899 74.5504 16.3967 74.1894 16.2686C73.8284 16.1405 73.3625 16.0765 72.7919 16.0765C71.8603 16.0765 71.0801 16.2337 70.4512 16.5481C69.8224 16.8625 69.3158 17.2818 68.9315 17.8058C68.5589 18.3182 68.2911 18.8888 68.128 19.5176C67.965 20.1465 67.8835 20.7811 67.8835 21.4216V30.173H62.451ZM80.2575 22.5221V18.9412H92.5549L92.0308 19.8495C92.0308 19.7564 92.0308 19.669 92.0308 19.5875C92.0308 19.4943 92.0308 19.407 92.0308 19.3255C92.0308 18.6617 91.8736 18.027 91.5592 17.4215C91.2448 16.8043 90.7557 16.3036 90.0919 15.9193C89.4398 15.5233 88.6013 15.3254 87.5765 15.3254C86.5517 15.3254 85.6667 15.5466 84.9214 15.9891C84.1878 16.42 83.623 17.043 83.227 17.8582C82.8427 18.6734 82.6506 19.6574 82.6506 20.8102C82.6506 21.9981 82.8369 23.017 83.2096 23.8671C83.5939 24.7056 84.1587 25.3519 84.904 25.806C85.6609 26.2602 86.5983 26.4873 87.7163 26.4873C88.4383 26.4873 89.0613 26.4232 89.5853 26.2951C90.1094 26.1554 90.5344 25.9807 90.8605 25.7711C91.1982 25.5615 91.4544 25.3286 91.6291 25.0724C91.8037 24.8162 91.9085 24.5658 91.9435 24.3213H97.2886C97.2188 25.1015 96.9509 25.8701 96.4851 26.627C96.0193 27.3723 95.373 28.0477 94.5462 28.6533C93.7194 29.2472 92.7121 29.7188 91.5243 30.0682C90.3481 30.4175 89.0031 30.5922 87.4892 30.5922C85.4396 30.5922 83.6521 30.1846 82.1266 29.3695C80.601 28.5427 79.4191 27.4073 78.5806 25.9633C77.7421 24.5076 77.3229 22.8307 77.3229 20.9325C77.3229 19.0111 77.748 17.3283 78.5981 15.8843C79.4598 14.4287 80.6534 13.2991 82.179 12.4956C83.7161 11.6804 85.492 11.2728 87.5067 11.2728C89.5679 11.2728 91.3496 11.6862 92.8518 12.513C94.354 13.3282 95.5127 14.4753 96.3279 15.9542C97.1431 17.4215 97.5507 19.1333 97.5507 21.0897C97.5507 21.3809 97.5448 21.6603 97.5332 21.9282C97.5215 22.196 97.5041 22.394 97.4808 22.5221H80.2575ZM105.089 25.9283H115.15V30.173H99.289V26.1554L109.106 15.6572L109.228 15.8494H99.639V11.6222H114.94V15.6398L105.211 26.103L105.089 25.9283ZM127.15 30.5748C125.147 30.5748 123.382 30.1614 121.857 29.3345C120.331 28.5077 119.138 27.3723 118.276 25.9283C117.426 24.4727 117.001 22.7958 117.001 20.8976C117.001 19.0111 117.426 17.3458 118.276 15.9018C119.138 14.4461 120.331 13.3166 121.857 12.513C123.382 11.6979 125.147 11.2903 127.15 11.2903C129.153 11.2903 130.917 11.6979 132.442 12.513C133.968 13.3166 135.156 14.4461 136.006 15.9018C136.868 17.3458 137.298 19.0111 137.298 20.8976C137.298 22.7958 136.868 24.4727 136.006 25.9283C135.156 27.3723 133.968 28.5077 132.442 29.3345C130.917 30.1614 129.153 30.5748 127.15 30.5748ZM127.15 26.2777C128.093 26.2777 128.914 26.0564 129.613 25.6139C130.311 25.1714 130.853 24.5484 131.237 23.7448C131.621 22.9297 131.814 21.9806 131.814 20.8976C131.814 19.8146 131.621 18.8771 131.237 18.0853C130.853 17.2818 130.311 16.6646 129.613 16.2337C128.914 15.8028 128.093 15.5874 127.15 15.5874C126.218 15.5874 125.397 15.8028 124.687 16.2337C123.988 16.6646 123.446 17.2818 123.062 18.0853C122.678 18.8771 122.486 19.8146 122.486 20.8976C122.486 21.9806 122.678 22.9297 123.062 23.7448C123.446 24.5484 123.988 25.1714 124.687 25.6139C125.397 26.0564 126.218 26.2777 127.15 26.2777Z" fill="#23272E"/>
<defs>
<linearGradient id="paint0_linear_5_30" x1="0.185006" y1="12.5785" x2="25.1867" y2="12.5785" gradientUnits="userSpaceOnUse">
<stop stop-color="#2E90FA"/>
<stop offset="1" stop-color="#5AC2FF"/>
</linearGradient>
<linearGradient id="paint1_linear_5_30" x1="31.8535" y1="16.3437" x2="12.7516" y2="32.3698" gradientUnits="userSpaceOnUse">
<stop stop-color="#2E90FA"/>
<stop offset="1" stop-color="#5AC2FF"/>
</linearGradient>
</defs>
</svg>
