<svg width="128" height="45" viewBox="0 0 128 45" fill="none" xmlns="http://www.w3.org/2000/svg">
<path d="M14.5915 6.78479C15.6446 4.97587 15.3801 2.86919 14.0006 2.0794C12.6211 1.28959 10.649 2.11577 9.59585 3.92472C8.5426 5.73364 8.80718 7.84034 10.1866 8.63016C11.5661 9.41991 13.5382 8.59379 14.5915 6.78479Z" fill="#605DFF"/>
<path d="M9.82566 41.9599C25.3046 28.507 1.62353 14.375 6.3701 0.000195137C-5.64168 13.306 18.0897 27.4552 9.82566 41.9599Z" fill="url(#paint0_linear_10_36)"/>
<path d="M0.830513 9.34847C2.2683 19.4402 10.5612 28.0576 9.32194 38.6318C6.41327 28.9296 -2.7877 20.1566 0.830513 9.34847Z" fill="url(#paint1_linear_10_36)"/>
<path d="M10.1856 13.2018L11.6248 15.7707C11.6248 15.7707 19.9723 9.20561 23.1386 8.9202C21.1323 7.61001 12.6265 9.45253 10.1856 13.2018Z" fill="url(#paint2_linear_10_36)"/>
<path d="M36.5733 25.9618H33.7731V5.41797H36.5733V14.2549H46.8025V5.41797H49.6027V25.9618H46.8025V16.8407H36.5733V25.9618ZM52.1651 19.0002C52.1651 17.5794 52.4793 16.3197 53.108 15.221C53.7366 14.1223 54.5938 13.2604 55.6796 12.6353C56.7844 12.0102 58.0416 11.6976 59.4512 11.6976C60.8608 11.6976 62.1085 12.0102 63.1943 12.6353C64.2801 13.2604 65.1373 14.1223 65.7659 15.221C66.3945 16.3197 66.7088 17.5794 66.7088 19.0002C66.7088 20.4209 66.3945 21.6806 65.7659 22.7793C65.1373 23.878 64.2801 24.7399 63.1943 25.3651C62.1085 25.9901 60.8608 26.3027 59.4512 26.3027C58.0416 26.3027 56.7844 25.9901 55.6796 25.3651C54.5938 24.7399 53.7366 23.878 53.108 22.7793C52.4793 21.6806 52.1651 20.4209 52.1651 19.0002ZM54.8795 19.0002C54.8795 19.9663 55.07 20.8187 55.451 21.5575C55.851 22.2962 56.3939 22.874 57.0796 23.2908C57.7654 23.7076 58.5559 23.9159 59.4512 23.9159C60.3465 23.9159 61.137 23.7076 61.8228 23.2908C62.5085 22.874 63.0419 22.2962 63.4228 21.5575C63.8229 20.8187 64.0229 19.9663 64.0229 19.0002C64.0229 18.0152 63.8229 17.1627 63.4228 16.4428C63.0419 15.7041 62.5085 15.1263 61.8228 14.7096C61.137 14.2928 60.3465 14.0844 59.4512 14.0844C58.5559 14.0844 57.7654 14.2928 57.0796 14.7096C56.3939 15.1263 55.851 15.7041 55.451 16.4428C55.07 17.1627 54.8795 18.0152 54.8795 19.0002ZM67.6818 21.9269H70.2534C70.2534 22.6278 70.5105 23.1866 71.0249 23.6033C71.5392 24.0012 72.2345 24.2 73.1107 24.2C74.0631 24.2 74.7965 24.0201 75.3109 23.6601C75.8251 23.2813 76.0823 22.7793 76.0823 22.1542C76.0823 21.6996 75.9394 21.3207 75.6537 21.0176C75.387 20.7146 74.8917 20.4683 74.1679 20.2788L71.7106 19.7105C70.4725 19.4074 69.5486 18.9433 68.939 18.3182C68.3485 17.6931 68.0533 16.8691 68.0533 15.8462C68.0533 14.9937 68.2723 14.2549 68.7104 13.6298C69.1676 13.0047 69.7867 12.5216 70.5677 12.1806C71.3678 11.8397 72.2821 11.6692 73.3107 11.6692C74.3393 11.6692 75.2251 11.8492 75.9681 12.209C76.73 12.569 77.3205 13.0709 77.7395 13.7151C78.1777 14.3591 78.4063 15.1263 78.4253 16.0166H75.8538C75.8347 15.2968 75.5965 14.738 75.1394 14.3401C74.6822 13.9424 74.0441 13.7434 73.225 13.7434C72.3869 13.7434 71.7392 13.9234 71.282 14.2833C70.8249 14.6433 70.5963 15.1358 70.5963 15.7609C70.5963 16.6891 71.282 17.3237 72.6535 17.6647L75.1108 18.2614C76.2919 18.5266 77.1776 18.9623 77.7682 19.5685C78.3587 20.1557 78.6539 20.9607 78.6539 21.9837C78.6539 22.8551 78.4158 23.6223 77.9396 24.2853C77.4633 24.9293 76.8061 25.4314 75.9681 25.7912C75.1489 26.1323 74.1774 26.3027 73.0536 26.3027C71.4154 26.3027 70.1106 25.9049 69.139 25.1093C68.1676 24.3137 67.6818 23.2529 67.6818 21.9269ZM80.7752 32.1845V12.067H83.2038L83.4043 14.5674C83.8608 13.6014 84.5374 12.8815 85.4324 12.408C86.3471 11.9154 87.3566 11.6692 88.4611 11.6692C89.7946 11.6692 90.9473 11.9817 91.9184 12.6069C92.8904 13.2131 93.6332 14.0655 94.1478 15.1642C94.6804 16.2439 94.9471 17.4942 94.9471 18.9149C94.9471 20.3357 94.6902 21.6049 94.1756 22.7225C93.6807 23.8401 92.9476 24.721 91.9757 25.3651C91.0234 26.0091 89.8519 26.3311 88.4611 26.3311C87.3378 26.3311 86.3372 26.1038 85.461 25.6492C84.5848 25.1945 83.9181 24.541 83.4607 23.6886V32.1845H80.7752ZM83.4894 19.0286C83.4894 19.9568 83.6612 20.7997 84.004 21.5575C84.3656 22.2962 84.8703 22.874 85.5183 23.2908C86.1851 23.7076 86.9754 23.9159 87.89 23.9159C88.8039 23.9159 89.5852 23.7076 90.2331 23.2908C90.8803 22.8551 91.376 22.2678 91.7188 21.529C92.0804 20.7903 92.2612 19.9568 92.2612 19.0286C92.2612 18.0625 92.0804 17.21 91.7188 16.4712C91.376 15.7325 90.8803 15.1547 90.2331 14.738C89.5852 14.3213 88.8039 14.1128 87.89 14.1128C86.9754 14.1128 86.1851 14.3213 85.5183 14.738C84.8703 15.1547 84.3656 15.7325 84.004 16.4712C83.6612 17.21 83.4894 18.0625 83.4894 19.0286ZM97.0505 25.9618V12.067H99.7364V25.9618H97.0505ZM98.3652 8.77091C97.8891 8.77091 97.4702 8.60038 97.1078 8.25941C96.765 7.89948 96.5932 7.48277 96.5932 7.00918C96.5932 6.51664 96.765 6.09992 97.1078 5.75895C97.4702 5.41797 97.8891 5.24745 98.3652 5.24745C98.8602 5.24745 99.2791 5.41797 99.6227 5.75895C99.9655 6.09992 100.136 6.51664 100.136 7.00918C100.136 7.48277 99.9655 7.89948 99.6227 8.25941C99.2791 8.60038 98.8602 8.77091 98.3652 8.77091ZM101.293 12.067H109.465V14.3117H101.293V12.067ZM106.722 25.9618H104.036V7.71952H106.722V25.9618ZM114.936 26.3027C113.451 26.3027 112.279 25.9144 111.422 25.1378C110.584 24.361 110.165 23.3476 110.165 22.0974C110.165 20.8282 110.622 19.8147 111.536 19.057C112.451 18.2803 113.727 17.8257 115.365 17.6931L119.766 17.3521V16.9543C119.766 16.1776 119.622 15.562 119.337 15.1073C119.051 14.6338 118.66 14.3023 118.165 14.1128C117.67 13.9045 117.108 13.8003 116.479 13.8003C115.356 13.8003 114.48 14.0371 113.851 14.5107C113.241 14.9653 112.937 15.6188 112.937 16.4712H110.594C110.594 15.5052 110.841 14.6622 111.337 13.9424C111.831 13.2225 112.527 12.6637 113.422 12.2659C114.337 11.8681 115.394 11.6692 116.594 11.6692C117.756 11.6692 118.765 11.8776 119.622 12.2943C120.499 12.6921 121.175 13.3078 121.651 14.1413C122.146 14.9558 122.394 15.9882 122.394 17.2384V25.9618H120.108L119.823 23.717C119.46 24.5126 118.832 25.1472 117.937 25.6208C117.061 26.0754 116.06 26.3027 114.936 26.3027ZM115.708 24.2285C116.984 24.2285 117.985 23.8496 118.709 23.0918C119.432 22.3152 119.794 21.2733 119.794 19.9663V19.2275L116.222 19.5117C115.041 19.6253 114.184 19.9 113.651 20.3357C113.136 20.7713 112.88 21.3302 112.88 22.0121C112.88 22.7509 113.127 23.3097 113.622 23.6886C114.137 24.0485 114.832 24.2285 115.708 24.2285ZM128 25.9618H125.314V5.04861H128V25.9618Z" fill="#4936F5"/>
<path d="M34.7897 42.0326H33.8396V32.5051H34.7897L38.2821 40.9016L41.7745 32.5051H42.7379V42.0326H41.7878V37.5084C41.7878 37.0914 41.7878 36.7277 41.7878 36.4172C41.7967 36.1067 41.8012 35.8362 41.8012 35.6056C41.8101 35.3749 41.8191 35.1709 41.828 34.9934C41.8369 34.8071 41.8503 34.6297 41.8682 34.4612L38.7504 42.0326H37.8271L34.7094 34.501C34.7362 34.6785 34.754 35.02 34.7629 35.5257C34.7808 36.0224 34.7897 36.6346 34.7897 37.362V42.0326ZM46.3222 42.1922C45.6353 42.1922 45.0956 42.0149 44.7031 41.66C44.3195 41.3052 44.1277 40.8483 44.1277 40.2894C44.1277 39.6951 44.3418 39.2205 44.7699 38.8657C45.1981 38.5108 45.7914 38.3023 46.5496 38.2403L48.6905 38.0672V37.8543C48.6905 37.4286 48.6147 37.0959 48.4631 36.8564C48.3114 36.608 48.1062 36.435 47.8475 36.3374C47.5889 36.2398 47.2989 36.191 46.9778 36.191C46.4069 36.191 45.9653 36.3108 45.6531 36.5503C45.3409 36.7898 45.1848 37.1269 45.1848 37.5616H44.3418C44.3418 37.1269 44.4533 36.7499 44.6763 36.4305C44.8993 36.1112 45.2116 35.8628 45.6129 35.6854C46.0144 35.5079 46.4783 35.4192 47.0046 35.4192C47.513 35.4192 47.9591 35.5079 48.3427 35.6854C48.7262 35.8539 49.0295 36.1201 49.2525 36.4837C49.4844 36.8386 49.6005 37.2999 49.6005 37.8676V42.0326H48.8244L48.704 40.9016C48.5077 41.3096 48.1954 41.629 47.7673 41.8597C47.348 42.0814 46.8663 42.1922 46.3222 42.1922ZM46.5363 41.4471C47.2231 41.4471 47.7539 41.2298 48.1286 40.7951C48.5032 40.3604 48.6905 39.7971 48.6905 39.1052V38.7592L46.7771 38.9055C46.1705 38.9587 45.7334 39.1096 45.4658 39.358C45.1981 39.6064 45.0644 39.9079 45.0644 40.2628C45.0644 40.6532 45.1981 40.9503 45.4658 41.1544C45.7334 41.3495 46.0902 41.4471 46.5363 41.4471ZM51.975 42.0326H51.0517V35.5922H51.8545L51.9884 36.71C52.2025 36.3019 52.5058 35.987 52.8983 35.7652C53.2997 35.5345 53.7368 35.4192 54.2096 35.4192C55.1017 35.4192 55.7439 35.6632 56.1364 36.1511C56.5289 36.639 56.7252 37.2866 56.7252 38.0938V42.0326H55.8019V38.2935C55.8019 37.5394 55.6414 37.0116 55.3202 36.71C55.008 36.4083 54.5843 36.2576 54.049 36.2576C53.3889 36.2576 52.876 36.4793 52.5103 36.9229C52.1534 37.3575 51.975 37.9386 51.975 38.666V42.0326ZM60.0239 42.1922C59.337 42.1922 58.7973 42.0149 58.4048 41.66C58.0212 41.3052 57.8294 40.8483 57.8294 40.2894C57.8294 39.6951 58.0435 39.2205 58.4717 38.8657C58.8999 38.5108 59.4931 38.3023 60.2513 38.2403L62.3923 38.0672V37.8543C62.3923 37.4286 62.3164 37.0959 62.1648 36.8564C62.0131 36.608 61.8079 36.435 61.5493 36.3374C61.2906 36.2398 61.0006 36.191 60.6795 36.191C60.1086 36.191 59.667 36.3108 59.3548 36.5503C59.0426 36.7898 58.8865 37.1269 58.8865 37.5616H58.0435C58.0435 37.1269 58.155 36.7499 58.378 36.4305C58.601 36.1112 58.9133 35.8628 59.3146 35.6854C59.7161 35.5079 60.18 35.4192 60.7063 35.4192C61.2147 35.4192 61.6608 35.5079 62.0444 35.6854C62.4279 35.8539 62.7312 36.1201 62.9542 36.4837C63.1862 36.8386 63.3022 37.2999 63.3022 37.8676V42.0326H62.5261L62.4057 40.9016C62.2094 41.3096 61.8971 41.629 61.469 41.8597C61.0497 42.0814 60.568 42.1922 60.0239 42.1922ZM60.238 41.4471C60.9248 41.4471 61.4556 41.2298 61.8303 40.7951C62.2049 40.3604 62.3923 39.7971 62.3923 39.1052V38.7592L60.4788 38.9055C59.8722 38.9587 59.4351 39.1096 59.1675 39.358C58.8999 39.6064 58.7661 39.9079 58.7661 40.2628C58.7661 40.6532 58.8999 40.9503 59.1675 41.1544C59.4351 41.3495 59.7919 41.4471 60.238 41.4471ZM64.3119 38.6261C64.3119 38.0406 64.4323 37.5084 64.6732 37.0293C64.914 36.5414 65.2619 36.1511 65.7168 35.8583C66.1718 35.5656 66.7159 35.4192 67.3493 35.4192C67.9648 35.4192 68.4911 35.57 68.9282 35.8717C69.3653 36.1733 69.6775 36.608 69.8649 37.1757L69.7177 37.362L69.8381 35.5922H70.6409V41.833C70.6409 42.4717 70.5116 43.0262 70.2529 43.4963C69.9942 43.9754 69.6285 44.3435 69.1557 44.6008C68.6919 44.8669 68.1432 45 67.5098 45C66.6803 45 65.9934 44.7782 65.4492 44.3347C64.9051 43.8911 64.5661 43.2834 64.4323 42.5117H65.3556C65.4537 43.035 65.6901 43.4387 66.0647 43.7225C66.4483 44.0152 66.9345 44.1617 67.5233 44.1617C68.1923 44.1617 68.7275 43.9576 69.129 43.5495C69.5303 43.1414 69.7311 42.6003 69.7311 41.9261V39.9036L69.8649 40.0765C69.6775 40.6176 69.352 41.0479 68.8881 41.3673C68.4332 41.6777 67.898 41.833 67.2824 41.833C66.6668 41.833 66.1361 41.6866 65.6901 41.3939C65.2441 41.1011 64.9006 40.7153 64.6598 40.2362C64.4278 39.7483 64.3119 39.2116 64.3119 38.6261ZM65.2351 38.6128C65.2351 39.0564 65.3199 39.46 65.4894 39.8237C65.6678 40.1874 65.9175 40.4757 66.2387 40.6887C66.5688 40.9016 66.9613 41.008 67.4162 41.008C67.88 41.008 68.2771 40.906 68.6071 40.7019C68.946 40.489 69.2047 40.2051 69.3832 39.8503C69.5616 39.4866 69.6508 39.0741 69.6508 38.6128C69.6508 38.1515 69.5616 37.7434 69.3832 37.3886C69.2137 37.0338 68.9639 36.7543 68.6339 36.5503C68.3127 36.3374 67.9113 36.231 67.4296 36.231C66.9657 36.231 66.5688 36.3419 66.2387 36.5636C65.9175 36.7765 65.6678 37.0648 65.4894 37.4286C65.3199 37.7834 65.2351 38.1781 65.2351 38.6128ZM74.8825 42.1922C74.258 42.1922 73.705 42.0504 73.2233 41.7665C72.7505 41.4826 72.3803 41.0878 72.1127 40.5822C71.8451 40.0765 71.7112 39.4866 71.7112 38.8124C71.7112 38.1471 71.8406 37.5616 72.0992 37.0559C72.3669 36.5414 72.7326 36.1422 73.1965 35.8583C73.6604 35.5656 74.2 35.4192 74.8156 35.4192C75.4043 35.4192 75.9172 35.5479 76.3544 35.8051C76.8004 36.0624 77.1439 36.4217 77.3847 36.883C77.6345 37.3354 77.7593 37.8676 77.7593 38.4798V38.9321H72.2197L72.2464 38.2669H76.8361C76.8361 37.6459 76.6487 37.1491 76.2741 36.7765C75.9083 36.3951 75.4222 36.2044 74.8156 36.2044C74.3695 36.2044 73.9771 36.3063 73.638 36.5103C73.308 36.7144 73.0537 37.0071 72.8754 37.3886C72.697 37.7612 72.6077 38.2047 72.6077 38.7192C72.6077 39.5709 72.804 40.2318 73.1965 40.7019C73.598 41.1721 74.1643 41.4072 74.8958 41.4072C75.4222 41.4072 75.8548 41.2963 76.1938 41.0745C76.5328 40.8528 76.7602 40.529 76.8762 40.1031H77.7593C77.5898 40.7773 77.2598 41.2963 76.7692 41.66C76.2785 42.0149 75.6496 42.1922 74.8825 42.1922ZM79.7573 42.0326H78.8341V35.5922H79.6369L79.7708 36.8032L79.6369 36.7632C79.7708 36.3551 80.0205 36.0313 80.3862 35.7918C80.7609 35.5434 81.1981 35.4192 81.6976 35.4192C82.2777 35.4192 82.7588 35.5789 83.1425 35.8983C83.5352 36.2087 83.7847 36.6346 83.8919 37.1757H83.6914C83.7806 36.6346 84.0211 36.2087 84.4138 35.8983C84.8155 35.5789 85.3146 35.4192 85.9126 35.4192C86.608 35.4192 87.1701 35.6322 87.5988 36.0579C88.0267 36.4837 88.241 37.0693 88.241 37.8144V42.0326H87.3443V38.0007C87.3443 37.4507 87.2012 37.0205 86.9165 36.71C86.6309 36.3995 86.2382 36.2442 85.7384 36.2442C85.3817 36.2442 85.0741 36.3285 84.8155 36.4971C84.557 36.6567 84.3557 36.8741 84.2134 37.1491C84.0792 37.4241 84.0121 37.7257 84.0121 38.054V42.0326H83.1024V37.9874C83.1024 37.4374 82.9551 37.0116 82.6606 36.71C82.3759 36.4083 81.9873 36.2576 81.4968 36.2576C81.14 36.2576 80.8279 36.3374 80.5602 36.4971C80.3016 36.6567 80.1008 36.8741 79.9581 37.1491C79.8243 37.4152 79.7573 37.7124 79.7573 38.0406V42.0326ZM92.4126 42.1922C91.7884 42.1922 91.2353 42.0504 90.7534 41.7665C90.2806 41.4826 89.9108 41.0878 89.6433 40.5822C89.3757 40.0765 89.2416 39.4866 89.2416 38.8124C89.2416 38.1471 89.3708 37.5616 89.6293 37.0559C89.8969 36.5414 90.2634 36.1422 90.7273 35.8583C91.1911 35.5656 91.7303 35.4192 92.3463 35.4192C92.9345 35.4192 93.4475 35.5479 93.8844 35.8051C94.3311 36.0624 94.6739 36.4217 94.9152 36.883C95.1647 37.3354 95.2899 37.8676 95.2899 38.4798V38.9321H89.7504L89.7766 38.2669H94.3663C94.3663 37.6459 94.1789 37.1491 93.8042 36.7765C93.4385 36.3951 92.9525 36.2044 92.3463 36.2044C91.8996 36.2044 91.5077 36.3063 91.1682 36.5103C90.8385 36.7144 90.5841 37.0071 90.4057 37.3886C90.2274 37.7612 90.1382 38.2047 90.1382 38.7192C90.1382 39.5709 90.3346 40.2318 90.7273 40.7019C91.1281 41.1721 91.6951 41.4072 92.4265 41.4072C92.9526 41.4072 93.3853 41.2963 93.724 41.0745C94.0636 40.8528 94.291 40.529 94.4064 40.1031H95.2899C95.1206 40.7773 94.7901 41.2963 94.2992 41.66C93.8091 42.0149 93.18 42.1922 92.4126 42.1922ZM97.2878 42.0326H96.3641V35.5922H97.1675L97.3009 36.71C97.5152 36.3019 97.8187 35.987 98.2106 35.7652C98.6123 35.5345 99.0492 35.4192 99.5221 35.4192C100.415 35.4192 101.057 35.6632 101.45 36.1511C101.841 36.639 102.038 37.2866 102.038 38.0938V42.0326H101.115V38.2935C101.115 37.5394 100.954 37.0116 100.633 36.71C100.321 36.4083 99.8967 36.2576 99.3617 36.2576C98.7015 36.2576 98.1885 36.4793 97.8228 36.9229C97.4661 37.3575 97.2878 37.9386 97.2878 38.666V42.0326ZM102.754 35.5922H106.26V36.364H102.754V35.5922ZM104.962 42.0326H104.052V33.5563H104.962V42.0326Z" fill="#4936F5"/>
<defs>
<linearGradient id="paint0_linear_10_36" x1="16.2815" y1="15.6887" x2="18.2897" y2="43.6434" gradientUnits="userSpaceOnUse">
<stop stop-color="#605DFF"/>
<stop offset="1" stop-color="#757DFF"/>
</linearGradient>
<linearGradient id="paint1_linear_10_36" x1="16.2815" y1="15.6887" x2="18.2897" y2="43.6433" gradientUnits="userSpaceOnUse">
<stop stop-color="#605DFF"/>
<stop offset="1" stop-color="#757DFF"/>
</linearGradient>
<linearGradient id="paint2_linear_10_36" x1="16.2814" y1="15.6887" x2="18.2897" y2="43.6435" gradientUnits="userSpaceOnUse">
<stop stop-color="#605DFF"/>
<stop offset="1" stop-color="#757DFF"/>
</linearGradient>
</defs>
</svg>
