<svg width="26" height="26" viewBox="0 0 26 26" fill="none" xmlns="http://www.w3.org/2000/svg">
<g clip-path="url(#clip0_3_12)">
<path d="M12.5172 6.25862C12.5172 9.71516 9.71516 12.5172 6.25862 12.5172C2.80208 12.5172 0 9.71516 0 6.25862C0 2.80208 2.80208 0 6.25862 0C9.71516 0 12.5172 2.80208 12.5172 6.25862Z" fill="#2E90FA"/>
<path d="M0 19.6035C0 16.1469 2.80208 13.3448 6.25862 13.3448H12.5172V19.6034C12.5172 23.06 9.71516 25.8621 6.25862 25.8621C2.80208 25.8621 0 23.06 0 19.6035Z" fill="#2E90FA"/>
<path d="M25.8621 19.6035C25.8621 23.06 23.06 25.8621 19.6035 25.8621C16.1469 25.8621 13.3448 23.06 13.3448 19.6035C13.3448 16.1469 16.1469 13.3448 19.6035 13.3448C23.06 13.3448 25.8621 16.1469 25.8621 19.6035Z" fill="#2E90FA"/>
<path d="M13 6.25862C13 2.80208 15.8021 0 19.2587 0C22.7152 0 25.5173 2.80208 25.5173 6.25862C25.5173 9.71516 22.7152 12.5172 19.2587 12.5172H13V6.25862Z" fill="#2E90FA"/>
</g>
<defs>
<clipPath id="clip0_3_12">
<rect width="26" height="26" fill="white"/>
</clipPath>
</defs>
</svg>
