<svg width="26" height="30" viewBox="0 0 26 30" fill="none" xmlns="http://www.w3.org/2000/svg">
<g clip-path="url(#clip0_3_17)">
<g clip-path="url(#clip1_3_17)">
<path d="M16.3959 4.8508C17.5793 3.55746 17.2821 2.05123 15.732 1.48655C14.1819 0.921864 11.9659 1.51256 10.7825 2.8059C9.59905 4.09924 9.89628 5.60547 11.4464 6.17015C12.9965 6.73484 15.2125 6.14414 16.3959 4.8508Z" fill="#2E90FA"/>
<path d="M11.0407 30C28.4339 20.3816 1.82422 10.2776 7.1578 0C-6.33949 9.51327 20.3268 19.6296 11.0407 30Z" fill="url(#paint0_linear_3_17)"/>
<path d="M0.933184 6.68369C2.54878 13.899 11.8672 20.0602 10.4748 27.6204C7.20637 20.6837 -3.1325 14.4112 0.933184 6.68369Z" fill="url(#paint1_linear_3_17)"/>
<path d="M11.445 9.43877L13.0623 11.2755C13.0623 11.2755 22.4421 6.58163 26 6.37755C23.7456 5.44081 14.1878 6.75816 11.445 9.43877Z" fill="url(#paint2_linear_3_17)"/>
</g>
</g>
<defs>
<linearGradient id="paint0_linear_3_17" x1="5.01337" y1="10.4592" x2="11.9771" y2="26.0892" gradientUnits="userSpaceOnUse">
<stop stop-color="#2E90FA"/>
<stop offset="1" stop-color="#5AC2FF"/>
</linearGradient>
<linearGradient id="paint1_linear_3_17" x1="1.35032" y1="13.9831" x2="5.8827" y2="25.2299" gradientUnits="userSpaceOnUse">
<stop stop-color="#2E90FA"/>
<stop offset="1" stop-color="#5AC2FF"/>
</linearGradient>
<linearGradient id="paint2_linear_3_17" x1="13.2964" y1="7.88944" x2="13.5321" y2="11.1183" gradientUnits="userSpaceOnUse">
<stop stop-color="#2E90FA"/>
<stop offset="1" stop-color="#5AC2FF"/>
</linearGradient>
<clipPath id="clip0_3_17">
<rect width="26" height="30" fill="white"/>
</clipPath>
<clipPath id="clip1_3_17">
<rect width="26" height="30" fill="white"/>
</clipPath>
</defs>
</svg>
